<?xml version="1.0" standalone="no"?>
<!DOCTYPE svg PUBLIC "-//W3C//DTD SVG 1.1//EN" "http://www.w3.org/Graphics/SVG/1.1/DTD/svg11.dtd" >
<svg xmlns="http://www.w3.org/2000/svg">
<metadata>
This is a custom SVG webfont generated by Font Squirrel.
Copyright   : Copyright 2003 2009 B Jackowski and J M Nowacki on behalf of TeX users groups This work is released under the GUST Font License   see httptugorgfontslicensesGUSTFONTLICENSEtxt for details
</metadata>
<defs>
<font id="webfontiAPJze5J" horiz-adv-x="1087" >
<font-face units-per-em="2048" ascent="1593" descent="-455" />
<missing-glyph horiz-adv-x="500" />
<glyph unicode=" " />
<glyph unicode="!" d="M432 111q0 45 32 77.5t79 32.5t78.5 -32.5t31.5 -77.5t-31.5 -78t-78.5 -33t-79 33t-32 78zM432 1141q-2 55 24.5 88t48 38t38.5 5q18 0 39.5 -6t47 -38t23.5 -87l-22 -672q0 -37 -14.5 -55.5t-29 -21.5t-45 -3t-46 3t-28.5 21.5t-13 55.5z" />
<glyph unicode="&#x22;" d="M260 1176q0 49 31 74.5t67 25.5q39 0 70 -26.5t31 -75.5l-31 -424q-6 -80 -70 -80q-29 0 -44 15t-18 30.5t-5 42.5zM627 1174q0 49 30.5 75.5t69.5 26.5q37 0 67.5 -25.5t30.5 -74.5l-30 -420q-2 -27 -5.5 -41.5t-18.5 -29.5t-44 -15t-45 15t-19.5 28.5t-5.5 44.5z" />
<glyph unicode="#" d="M72 403q0 80 102 80h94l35 285h-129q-102 0 -102 80q0 78 102 78h150l28 235q8 90 80 90q35 0 59.5 -25.5t18.5 -80.5l-27 -219h197l29 235q8 90 79 90q35 0 59.5 -25.5t18.5 -80.5l-26 -219h71q102 0 103 -80q0 -78 -103 -78h-94l-35 -285h129q102 0 103 -80 q0 -78 -103 -77h-149l-25 -197q-4 -47 -10 -69.5t-23.5 -41t-50.5 -18.5q-35 0 -57.5 22.5t-22.5 57.5q0 2 29 246h-196l-25 -197q-4 -47 -10 -69.5t-23.5 -41t-50.5 -18.5q-35 0 -57.5 22.5t-22.5 57.5q0 2 29 246h-72q-102 -1 -102 77zM426 483h199l34 285h-198z" />
<glyph unicode="$" d="M121 346q0 53 29.5 80t70.5 27q43 0 70.5 -29t27.5 -70q0 -49 -32 -73q39 -125 188 -150v455q-106 20 -181 62t-109.5 93.5t-49 95.5t-14.5 85q0 123 99 219t255 116v76q0 88 67.5 88t67.5 -88v-73q106 -12 181 -49t110 -88.5t49.5 -98.5t14.5 -94q0 -55 -31 -81t-70 -26 q-41 0 -69.5 29t-28.5 70q0 49 31 75q-41 100 -187 125v-405q182 -35 268.5 -139.5t86.5 -221.5q0 -135 -100.5 -237.5t-254.5 -124.5v-76q0 -88 -67.5 -88t-67.5 88v76q-104 12 -178 52t-109.5 95.5t-51 105.5t-15.5 99zM264 932q0 -68 59.5 -119t151.5 -70v377 q-104 -20 -157.5 -75.5t-53.5 -112.5zM610 131q94 20 152.5 80.5t58.5 132.5q0 78 -60.5 136.5t-150.5 76.5v-426z" />
<glyph unicode="%" d="M72 1149q0 113 51 192.5t131 79.5q76 0 128 -77.5t52 -196.5q0 -113 -51 -193t-131 -80q-76 0 -128 78t-52 197zM174 -90q0 12 12 45l566 1397q8 20 15 32.5t24.5 24.5t42.5 12q29 0 53 -22.5t24 -57.5q0 -10 -12 -45l-569 -1405q-8 -18 -13.5 -27t-23 -21.5t-39.5 -12.5 q-33 0 -56.5 23.5t-23.5 56.5zM199 1149q0 -41 10 -74t22.5 -48t22.5 -15q8 0 20.5 14t22.5 47t10 76q0 57 -18.5 96t-36.5 39q-8 0 -20.5 -15.5t-22.5 -48t-10 -71.5zM651 102.5q0 112.5 51.5 192.5t131.5 80q78 0 129 -78t51 -194.5t-51.5 -194.5t-128.5 -78 q-80 0 -131.5 80t-51.5 192.5zM778 102q0 -39 10.5 -71.5t22.5 -48t23 -15.5q8 0 20 14.5t22.5 47t10.5 73.5q0 39 -10.5 72t-22.5 48.5t-23 15.5q-8 0 -20 -14.5t-22.5 -47.5t-10.5 -74z" />
<glyph unicode="&#x26;" d="M57 285q0 104 41 167.5t168 190.5q-57 162 -57 328q0 139 65.5 220t159.5 81q98 0 147.5 -85t49.5 -200q0 -166 -213 -383q29 -68 145 -264q47 86 170 408q-63 6 -63 67q0 68 88 68h170q88 0 88 -67.5t-88 -67.5h-58l-106 -275q-55 -150 -119 -248q90 -111 166 -110 q31 0 48.5 29.5t21.5 72.5q0 70 63.5 70t63.5 -72q0 -82 -49.5 -158.5t-147.5 -76.5q-115 0 -242 135q-117 -135 -256 -135q-115 0 -185.5 91t-70.5 214zM213 291q0 -59 23.5 -117.5t76.5 -58.5q41 0 82 24.5t60.5 44t31.5 37.5q-86 127 -165 283l-78 -84q-31 -53 -31 -129z M336 971q0 -109 31 -221q137 145 137 237q0 18 -3 47t-21.5 66t-47.5 37q-37 0 -66.5 -44t-29.5 -122z" />
<glyph unicode="'" d="M442 1176q0 43 30 71.5t71 28.5q14 0 27.5 -3t33 -14.5t29.5 -39t8 -70.5l-29 -401q-6 -78 -69.5 -78t-69.5 78l-27 395q-4 15 -4 33z" />
<glyph unicode="(" d="M352 626.5q0 147.5 44 281.5t106.5 224.5t133.5 158t124 99t76 31.5q33 0 50 -19.5t17 -43.5q0 -35 -29 -53q-178 -119 -270 -291q-96 -178 -96 -389q0 -74 13.5 -149t49 -170t111.5 -189t186 -166q35 -23 35 -57q0 -25 -17.5 -44.5t-49.5 -19.5q-23 0 -76 32t-124 99.5 t-133.5 157.5t-106.5 225t-44 282.5z" />
<glyph unicode=")" d="M182 -106q0 16 7.5 27t14.5 18.5t32 23.5q184 127 263 307.5t79 356.5q0 207 -95 387q-92 172 -270 289q-31 20 -31 55q0 25 17.5 44t50.5 19q23 0 76 -31.5t123.5 -99t133 -158t106.5 -225.5t44 -282.5t-44 -281.5t-106.5 -224t-133 -157.5t-124 -99.5t-75.5 -32 q-33 0 -50.5 19.5t-17.5 44.5z" />
<glyph unicode="*" d="M141 442q0 45 54 72l211 113l-213 112q-51 27 -52 70q0 37 23.5 56.5t50.5 19.5q14 0 51 -21l209 -123l-6 238q0 88 73.5 88t73.5 -88l-6 -238l195 115q49 29 65 29q27 0 50.5 -19.5t23.5 -56.5q0 -45 -53 -72l-211 -112l225 -117q39 -27 39 -66q0 -37 -23.5 -56 t-50.5 -19q-18 0 -71 30l-189 113l6 -238q0 -88 -73.5 -88t-73.5 88l6 238l-194 -115q-49 -29 -66 -28q-27 0 -50.5 19t-23.5 56z" />
<glyph unicode="+" d="M78 627q0 78 102 78h285v284q0 102 80 103q78 0 78 -103v-284h282q102 0 103 -80q0 -78 -103 -78h-282v-285q0 -102 -80 -102q-78 0 -78 102v285h-285q-102 0 -102 80z" />
<glyph unicode="," d="M369 -215q0 45 57 63q115 39 156 156q-20 -4 -37 -4q-66 0 -102.5 42t-36.5 95q0 57 37.5 98t101.5 41q76 0 128 -60t52 -153q0 -82 -35 -152.5t-83 -110.5t-94 -62.5t-75 -22.5q-27 0 -48 21.5t-21 48.5z" />
<glyph unicode="-" d="M117 627q0 78 102 78h647q102 0 103 -80q0 -78 -103 -78h-647q-102 0 -102 80z" />
<glyph unicode="." d="M406 139q0 55 39.5 96t99.5 41q55 0 96 -39.5t41 -99.5q0 -55 -40 -96t-99 -41q-55 0 -96 40t-41 99z" />
<glyph unicode="/" d="M121 -90q0 12 16 49l672 1405q27 57 78 57q29 0 53.5 -22.5t24.5 -57.5q0 -12 -17 -49l-672 -1405q-27 -57 -77 -57q-29 0 -53.5 22.5t-24.5 57.5z" />
<glyph unicode="0" d="M98 627q0 274 133.5 459.5t311.5 185.5t311 -185.5t133 -461.5q0 -274 -133 -459.5t-311 -185.5t-311.5 185.5t-133.5 461.5zM254 647q0 -221 84 -376.5t205 -155.5q119 0 203.5 155.5t84.5 376.5q0 213 -86 351.5t-202.5 138.5t-202.5 -139.5t-86 -350.5z" />
<glyph unicode="1" d="M211 954q0 29 18.5 47.5t40.5 20.5q33 2 54.5 7t57.5 23.5t69.5 61.5t66.5 111q23 47 66 47q68 0 67 -88v-1049h183q90 0 90 -67.5t-90 -67.5h-521q-90 0 -90 67.5t90 67.5h183v834q-96 -82 -211 -82q-41 0 -57.5 21t-16.5 46z" />
<glyph unicode="2" d="M109 68q0 33 38 65l433 361q113 94 177 184t64 192q0 123 -92 195t-221 72q-80 0 -141.5 -37t-87.5 -96q29 -25 28 -70q0 -47 -30.5 -73.5t-67.5 -26.5q-35 0 -67.5 24.5t-32.5 81.5q0 135 115.5 233.5t291.5 98.5q197 0 329 -111.5t132 -290.5q0 -211 -232 -421 l-165 -137l-215 -177h456q0 33 3 49.5t20.5 31.5t54.5 15t55.5 -15t20.5 -30.5t2 -42.5v-55q0 -53 -18.5 -70.5t-69.5 -17.5h-690q-90 0 -90 68z" />
<glyph unicode="3" d="M90 270q0 49 28.5 77t71.5 28t71 -30t28 -69l-2 -14q-6 -27 -17 -45l-4 -6q78 -96 277 -96q133 0 215 75.5t82 171.5q0 90 -79 168t-224 78h-86q-88 0 -89 68q0 45 28 56t126 18q123 8 182 59q80 72 80 170q0 63 -65.5 110.5t-167.5 47.5q-145 0 -211 -54q16 -25 16 -57 q0 -41 -28.5 -69.5t-69.5 -28.5t-70.5 27.5t-29.5 74.5q0 113 104 177.5t287 64.5q172 0 281.5 -85t109.5 -208q0 -88 -45 -166t-117 -127q115 -55 169 -144t54 -182q0 -152 -126 -266t-326 -114q-197 0 -325 78.5t-128 211.5z" />
<glyph unicode="4" d="M61 434q0 47 19 74l465 729q18 31 33.5 38t56.5 7h63q51 0 69.5 -18.5t18.5 -69.5v-715h150q88 0 88 -67.5t-88 -67.5h-150v-209h123q88 0 88 -67.5t-88 -67.5h-372q-88 0 -88 67.5t88 67.5h122v209h-509q-55 0 -72 19.5t-17 70.5zM217 479h442v692z" />
<glyph unicode="5" d="M109 291q0 51 30.5 77.5t69.5 26.5t68.5 -27.5t29.5 -72.5q0 -41 -24 -66q27 -55 92 -84.5t135 -29.5q127 0 219 80.5t92 193.5q0 104 -69.5 187t-182.5 83q-166 0 -258 -104q-27 -27 -63 -27q-33 0 -50.5 16.5t-19.5 32t-2 39.5v547q0 53 18.5 70.5t69.5 17.5h551 q88 0 88 -67.5t-88 -67.5h-483v-375q106 53 239 54q176 0 291 -122t115 -284q0 -170 -136 -289.5t-331 -119.5q-170 0 -285.5 90t-115.5 221z" />
<glyph unicode="6" d="M104 614q0 293 169 475.5t391 182.5q137 0 206.5 -65.5t69.5 -155.5q0 -45 -27.5 -74t-72.5 -29t-72 29t-27 70q0 37 21 61q-35 29 -100 29q-133 0 -252 -115t-146 -324q127 109 301 109t295 -120t121 -292q0 -180 -129 -297.5t-305 -117.5q-80 0 -154 30.5t-141.5 99 t-107.5 198.5t-40 306zM281 455q0 -147 76.5 -243.5t189 -96.5t195.5 79.5t83 198.5t-78.5 199t-191.5 80t-193.5 -64.5t-80.5 -152.5z" />
<glyph unicode="7" d="M90 1108v88q0 27 2 42t20.5 30.5t55.5 15.5q55 0 70 -33h669q88 0 88 -67q0 -31 -24 -54q-231 -231 -340 -471q-127 -287 -129 -575q0 -104 -78 -104t-78 100q0 285 108.5 552t307.5 484h-516q0 -33 -3 -49t-20.5 -31.5t-54.5 -15.5t-55.5 15.5t-20.5 30.5t-2 42z" />
<glyph unicode="8" d="M90 358q0 111 83 197t202 119q-23 6 -53.5 20.5t-82 46t-85 85t-33.5 116.5q0 131 120.5 230.5t301 99.5t301.5 -100.5t121 -229.5q0 -94 -74 -163.5t-180 -104.5q119 -33 201.5 -118t82.5 -198q0 -150 -129 -264t-323.5 -114t-323.5 114t-129 264zM246 360 q0 -98 86 -171.5t211 -73.5t211 73.5t86 171.5q0 102 -87 175t-210 73t-210 -73t-87 -175zM276 940q0 -80 77 -138.5t189.5 -58.5t189.5 58.5t77 138.5q0 78 -77 137.5t-189.5 59.5t-189.5 -59.5t-77 -137.5z" />
<glyph unicode="9" d="M104 856q0 180 132.5 298t312.5 118q82 0 154.5 -32t137 -100.5t102.5 -197.5t38 -305q0 -289 -157.5 -473t-377.5 -184q-152 0 -226.5 63t-74.5 158q0 45 28 73.5t73 28.5t71.5 -28.5t26.5 -69.5l-18 -60q43 -31 123 -30q139 0 245.5 125t126.5 313q-127 -109 -301 -109 t-295 120t-121 292zM260 856q0 -117 78 -196.5t192 -79.5q109 0 192 63.5t83 155.5q0 33 -9.5 79t-33 109.5t-78.5 106.5t-135 43q-115 0 -202 -79t-87 -202z" />
<glyph unicode=":" d="M406 139q0 55 39.5 96t99.5 41q55 0 96 -39.5t41 -99.5q0 -55 -40 -96t-99 -41q-55 0 -96 40t-41 99zM406 745q0 55 39.5 96.5t99.5 41.5q55 0 96 -40t41 -100q0 -55 -40 -96t-99 -41q-55 0 -96 40t-41 99z" />
<glyph unicode=";" d="M369 -215q0 39 45 61q100 47 133 154q-57 2 -91 31.5t-42 56.5t-8 49q0 59 38.5 99t98.5 40q72 0 110.5 -58t38.5 -150q0 -156 -97 -254.5t-157 -98.5q-29 0 -49 21.5t-20 48.5zM406 745q0 55 39.5 96.5t99.5 41.5q55 0 96 -40t41 -100q0 -55 -40 -96t-99 -41 q-55 0 -96 40t-41 99z" />
<glyph unicode="&#x3c;" d="M117 627q0 41 47 71l667 424q41 25 60 25q31 0 54.5 -22.5t23.5 -57.5q0 -43 -49 -74l-578 -368l578 -367q49 -31 49 -74q0 -35 -23.5 -57.5t-54.5 -22.5l-6 2q-25 2 -56 23l-665 424q-47 33 -47 74z" />
<glyph unicode="=" d="M78 471q0 78 98 78h733q98 0 99 -78q0 -80 -111 -80h-709q-110 0 -110 80zM78 780q0 80 110 80h709q111 0 111 -80q0 -78 -99 -78h-733q-98 0 -98 78z" />
<glyph unicode="&#x3e;" d="M117 184q0 43 49 74l577 369l-577 366q-49 31 -49 74q0 35 23.5 57.5t54.5 22.5q27 0 53 -19l674 -430q47 -33 47 -73q0 -43 -47 -72l-674 -430q-27 -18 -53 -19q-31 0 -54.5 22.5t-23.5 57.5z" />
<glyph unicode="?" d="M129 1012q0 100 93 175t300 75q233 0 334.5 -76t101.5 -178q0 -125 -145 -201q-215 -113 -215 -297v-33q0 -57 -19.5 -72.5t-68.5 -15.5q-61 0 -74.5 21.5t-13.5 87.5q0 53 7 90t32.5 97t95.5 121.5t180 121.5q66 33 66 80q0 49 -72 83.5t-209 34.5q-152 0 -213 -61 q18 -23 19 -57q0 -43 -30 -71t-69 -28q-41 0 -70.5 27t-29.5 76zM399 111q0 45 32 77.5t79 32.5t79 -32.5t32 -77.5t-32 -78t-79 -33t-79 33t-32 78z" />
<glyph unicode="@" d="M90 627q0 266 162 450.5t379 184.5q365 0 364 -605q0 -127 -32.5 -219t-83 -137t-97.5 -64.5t-90 -19.5q-125 0 -214 118t-89 290q0 176 89 292.5t214 116.5q66 0 121 -33q-23 55 -71 90t-111 35q-162 0 -288 -143t-126 -358q0 -211 125 -355.5t291 -144.5q117 0 207 82 q27 27 71 26q84 0 84 -63q0 -53 -115.5 -116.5t-244.5 -63.5q-223 0 -384 184.5t-161 452.5zM516 625q0 -115 54.5 -194t122 -79t121.5 78t54 197q0 115 -54 193.5t-121.5 78.5t-122 -77.5t-54.5 -196.5z" />
<glyph unicode="A" d="M57 68q0 33 18.5 48t39 17t65.5 2l246 1067q8 39 25.5 56.5t35 20.5t56.5 3q35 0 52 -3t37.5 -21.5t29.5 -55.5l243 -1067q45 0 65.5 -2t39 -17.5t18.5 -47.5q0 -68 -90 -68h-217q-90 0 -90 68q0 31 18.5 47t38 18t57.5 2l-40 187h-324l-41 -187q39 0 58.5 -2t38 -18.5 t18.5 -46.5q0 -68 -90 -68h-218q-90 0 -90 68zM412 457h260l-101 471q-25 119 -28 153h-2q-8 -112 -129 -624z" />
<glyph unicode="B" d="M45 67.5q0 67.5 90 67.5h49v981h-49q-90 0 -90 67.5t90 67.5h465q160 0 257 -97t97 -222q0 -94 -61.5 -169t-157.5 -108q113 -25 187.5 -111.5t74.5 -199.5q0 -131 -96 -237.5t-260 -106.5h-506q-90 0 -90 67.5zM340 135h254q123 0 185.5 65.5t62.5 147.5q0 20 -4 45 t-19.5 60.5t-39 63.5t-68.5 47.5t-105 19.5h-266v-449zM340 719h217q115 0 178.5 66.5t63.5 144.5q0 63 -48.5 124.5t-158.5 61.5h-252v-397z" />
<glyph unicode="C" d="M84 627q0 270 146.5 457.5t351.5 187.5q139 0 260 -90q33 59 47 74.5t45 15.5q68 0 67 -88v-281q0 -27 -2 -42t-20 -30.5t-55 -15.5q-33 0 -50.5 11.5t-21.5 23.5t-8 39q-20 113 -91 180.5t-163 67.5q-139 0 -244.5 -146.5t-105.5 -365.5q0 -213 104.5 -361.5 t247.5 -148.5q23 0 53.5 7t78.5 28.5t83 77t39 134.5q4 55 78 56q78 0 77 -72q0 -147 -122.5 -256.5t-294.5 -109.5q-207 0 -353.5 187.5t-146.5 459.5z" />
<glyph unicode="D" d="M37 68q0 68 88 67h39v981h-39q-88 0 -88 68q0 31 16.5 47t31.5 18t40 2h426q201 0 328 -189.5t127 -445.5q0 -254 -128 -435t-327 -181h-426q-25 0 -40 2t-31.5 18.5t-16.5 47.5zM319 135h189q160 0 251 144.5t91 336.5q0 195 -91 347.5t-251 152.5h-189v-981z" />
<glyph unicode="E" d="M51 67.5q0 67.5 88 67.5h56v981h-56q-88 0 -88 67.5t88 67.5h768q51 0 69.5 -18.5t18.5 -69.5v-151q0 -27 -2 -42.5t-20.5 -30.5t-55 -15t-55 15t-20.5 30.5t-2 42.5v104h-490v-401h258q0 45 3 64.5t20.5 34.5t54.5 15t55.5 -15t20.5 -30.5t2 -42.5v-188q0 -27 -2 -42 t-20.5 -30.5t-55.5 -15.5t-54.5 15.5t-20.5 35t-3 64.5h-258v-445h535v135q0 27 2 42.5t20.5 30.5t55 15t55 -15t20.5 -30.5t2 -42.5v-182q0 -53 -18 -70.5t-70 -17.5h-813q-88 0 -88 67.5z" />
<glyph unicode="F" d="M57 67.5q0 67.5 88 67.5h62v981h-62q-88 0 -88 67.5t88 67.5h781q51 0 69.5 -18.5t18.5 -69.5v-151q0 -27 -2 -42.5t-20.5 -30.5t-55.5 -15t-55.5 15t-20.5 30.5t-2 42.5v104h-496v-422h267q0 45 3 64.5t20.5 35t54 15.5t55 -15.5t20.5 -30.5t2 -42v-189q0 -27 -2 -42 t-20.5 -30.5t-55 -15.5t-54 15.5t-20.5 35t-3 64.5h-267v-424h99q90 0 90 -67.5t-90 -67.5h-316q-88 0 -88 67.5z" />
<glyph unicode="G" d="M78 627q0 272 136 458.5t325 186.5q127 0 235 -84q27 53 43.5 68.5t44.5 15.5q68 0 68 -88v-281q0 -27 -2 -42t-20.5 -30.5t-55.5 -15.5q-70 0 -78 59q-23 143 -90.5 203t-136.5 60q-123 0 -218.5 -146.5t-95.5 -365.5q0 -217 94.5 -363.5t217.5 -146.5q90 0 149.5 84 t75.5 223h-82q-88 0 -88 67.5t88 67.5h250q88 0 88 -68q0 -31 -16.5 -47t-32.5 -18t-47 -2v-334q0 -27 -2 -42t-20.5 -30.5t-55.5 -15.5q-78 0 -78 74q-104 -94 -235 -94q-188 0 -324.5 185.5t-136.5 461.5z" />
<glyph unicode="H" d="M41 67.5q0 67.5 90 67.5h43v981h-43q-90 0 -90 67.5t90 67.5h242q90 0 90 -67.5t-90 -67.5h-43v-397h426v397h-43q-90 0 -90 67.5t90 67.5h241q90 0 90 -67.5t-90 -67.5h-43v-981h43q90 0 90 -67.5t-90 -67.5h-241q-90 0 -90 67.5t90 67.5h43v449h-426v-449h43 q90 0 90 -67.5t-90 -67.5h-242q-90 0 -90 67.5z" />
<glyph unicode="I" d="M162 67.5q0 67.5 90 67.5h213v981h-213q-90 0 -90 67.5t90 67.5h582q90 0 90 -67.5t-90 -67.5h-213v-981h213q90 0 90 -67.5t-90 -67.5h-582q-90 0 -90 67.5z" />
<glyph unicode="J" d="M133 205q0 45 27.5 73.5t72.5 28.5q43 0 71 -29.5t28 -68.5q0 -33 -15 -53q61 -41 166 -41q90 0 148 47q57 43 57 125v829h-160q-90 0 -90 67.5t90 67.5h371q88 0 88 -67.5t-88 -67.5h-55v-837q0 -143 -108.5 -221t-252.5 -78q-160 0 -255 61.5t-95 163.5z" />
<glyph unicode="K" d="M51 68q0 68 88 67h39v981h-39q-88 0 -88 68q0 31 16.5 47t32 18t39.5 2h205q90 0 90 -67.5t-90 -67.5h-39v-520l418 520q-76 0 -76 67.5t88 67.5h180q90 0 91 -67q0 -33 -18.5 -48.5t-38 -17.5t-62.5 -2l-309 -385l340 -596q35 0 53 -2t36.5 -18.5t18.5 -46.5 q0 -68 -90 -68h-154q-90 0 -90 68q0 31 20.5 50t57.5 19l-278 488l-187 -230v-260h39q90 0 90 -67.5t-90 -67.5h-205q-25 0 -40 2t-31.5 18.5t-16.5 47.5z" />
<glyph unicode="L" d="M61 67.5q0 67.5 91 67.5h67v981h-67q-90 0 -90.5 67.5t90.5 67.5h329q90 0 90 -67.5t-90 -67.5h-106v-981h481v135q0 23 1 33t8 25.5t23.5 22.5t45.5 7t45 -7t23.5 -22.5t8.5 -25.5t1 -33v-182q0 -53 -18.5 -70.5t-69.5 -17.5h-772q-91 0 -91 67.5z" />
<glyph unicode="M" d="M33 68q0 31 18.5 47t36.5 18t53 2v981q-35 0 -53 2t-36.5 18.5t-18.5 47.5q0 68 90 67h119q57 0 79.5 -18.5t36.5 -65.5l136 -413q35 -106 47 -174h2q12 63 67 231l117 363q12 37 33.5 55t38 20t45.5 2h119q90 0 90 -67q0 -31 -18.5 -47.5t-37 -18.5t-53.5 -2v-981 q35 0 53.5 -2t37 -18.5t18.5 -46.5q0 -68 -90 -68h-164q-90 0 -90 68q0 31 18 47t36.5 18t53.5 2v946q-2 -14 -94 -304t-102 -310q-27 -49 -78 -49q-59 0 -90 80l-146 452q-25 74 -37 135h-2v-950q35 0 53.5 -2t37 -18.5t18.5 -46.5q0 -68 -90 -68h-164q-90 0 -90 68z" />
<glyph unicode="N" d="M55 67.5q0 67.5 90 67.5h43v981h-43q-90 0 -90 67.5t90 67.5h144q31 0 47 -3t37.5 -21.5t36.5 -57.5l274 -759l84 -248h2v954h-43q-90 0 -90 67.5t90 67.5h213q90 0 90 -67.5t-90 -67.5h-43v-1028q0 -59 -21.5 -73.5t-72.5 -14.5q-35 0 -52.5 3t-39 21.5t-35.5 57.5 l-275 760l-84 248h-2v-955h43q90 0 90.5 -67.5t-90.5 -67.5h-213q-90 0 -90 67.5z" />
<glyph unicode="O" d="M117 626.5q0 159.5 4 254t22.5 174.5t43 116.5t77.5 62.5t113.5 32t165 6t165 -6t115 -32t78 -62.5t42 -116.5t22.5 -175.5t4 -255t-4 -254t-22.5 -174t-43.5 -116.5t-78 -62.5t-113.5 -31.5t-165 -6t-165 6t-114.5 31.5t-77.5 62.5t-42 116.5t-22.5 175t-4 255zM272 643 q0 -287 25 -391q18 -74 69.5 -105.5t176.5 -31.5q133 0 182 34.5t68 118.5q20 102 20 375q0 254 -18 346q-20 88 -71.5 118t-180.5 30q-121 0 -175.5 -27t-72.5 -111q-23 -98 -23 -356z" />
<glyph unicode="P" d="M51 67.5q0 67.5 88 67.5h56v981h-56q-88 0 -88 67.5t88 67.5h463q174 0 283.5 -113.5t109.5 -267.5q0 -150 -109.5 -264t-283.5 -114h-252v-357h56q88 0 88 -67.5t-88 -67.5h-267q-88 0 -88 67.5zM350 627h209q135 0 208 75.5t73 169.5q0 90 -73 167t-208 77h-209v-489z " />
<glyph unicode="Q" d="M117 626.5q0 159.5 4 254t22.5 174.5t43 116.5t77.5 62.5t113.5 32t165 6t165 -6t115 -32t78 -62.5t42 -116.5t22.5 -175.5t4 -254.5q0 -231 -13 -338q-16 -137 -49 -192.5t-96 -82.5q47 -92 68.5 -131t31.5 -59q29 -51 29 -64q0 -43 -70 -43h-26q-43 0 -56.5 9.5 t-42.5 62.5q-63 115 -100 195q-27 -2 -102 -2q-104 0 -165 6t-115 31.5t-77.5 62.5t-42 116.5t-22.5 175t-4 255zM272 625q0 -244 17 -340q16 -90 61 -130t178 -40h47q-43 92 -57 114q-35 70 -35 78q0 43 72 43h29q31 0 40 -4t21 -24q8 -12 12.5 -20.5t8.5 -18t22 -42.5 l47 -85q59 41 72 209q6 94 6 262q0 244 -16 340q-18 98 -67.5 134t-186.5 36q-133 0 -183.5 -33t-68.5 -123q-19 -96 -19 -356z" />
<glyph unicode="R" d="M41 67.5q0 67.5 90 67.5h43v981h-43q-90 0 -90 67.5t90 67.5h365q174 0 287.5 -104.5t113.5 -241.5q0 -88 -47 -163.5t-121 -118.5q63 -49 96 -127q16 -45 17 -189q0 -49 1 -73.5t5 -57.5t15 -47t30 -14q33 0 33 88q2 66 78 65q78 0 77 -69q0 -82 -48 -150.5t-138 -68.5 q-98 0 -154 75q-39 49 -47 104.5t-8 178.5q0 51 -2 73.5t-12 49t-33 45.5q-61 53 -156 53h-153v-424h43q90 0 90 -67.5t-90 -67.5h-242q-90 0 -90 67.5zM330 694h141q129 0 199.5 65.5t70.5 145.5t-70.5 145.5t-199.5 65.5h-141v-422z" />
<glyph unicode="S" d="M109 68v260q0 27 2 41t20.5 30.5t54.5 16.5q35 0 52.5 -13.5t20.5 -27t5 -39.5q4 -72 42 -120t95.5 -67.5t101.5 -26.5t87 -7q111 0 176 65.5t65 153.5q0 90 -65 151q-35 33 -66.5 45.5t-128.5 32.5l-82 21q-92 20 -128.5 31.5t-80.5 36t-85 65.5q-86 86 -86 215 q0 139 109.5 239.5t273 100.5t282.5 -86q12 51 31.5 68.5t48.5 17.5q68 0 68 -88v-260q0 -27 -2 -42.5t-20.5 -30.5t-55.5 -15q-68 0 -78 55q-4 31 -9 51.5t-24.5 61t-46.5 66.5t-77 46.5t-117 20.5q-102 0 -170 -58.5t-68 -134.5q0 -68 47 -117t113 -67l147 -33 q147 -35 204.5 -57.5t111.5 -77.5q100 -106 100 -248q0 -145 -107.5 -254.5t-281.5 -109.5q-205 0 -332 83q-23 -84 -80 -83q-67 0 -67 88z" />
<glyph unicode="T" d="M55 1012v151q0 53 19.5 70.5t70.5 17.5h797q51 0 69.5 -18.5t18.5 -69.5v-151q0 -27 -2 -42.5t-20.5 -30.5t-55.5 -15t-55 15t-20.5 30.5t-2.5 42.5v104h-253v-981h98q90 0 90 -67.5t-90 -67.5h-352q-90 0 -90.5 67.5t90.5 67.5h98v981h-254v-104q0 -27 -2 -42.5 t-20.5 -30.5t-55.5 -15t-55.5 15t-20.5 30.5t-2 42.5z" />
<glyph unicode="U" d="M6 1183.5q0 67.5 88 67.5h266q88 0 88.5 -67.5t-88.5 -67.5h-55v-690q0 -143 74 -227t164 -84t163.5 84t73.5 227v690h-55q-88 0 -88 67.5t88 67.5h266q88 0 88 -67.5t-88 -67.5h-55v-694q0 -193 -117 -317.5t-276 -124.5q-158 0 -275.5 125.5t-117.5 316.5v694h-56 q-88 0 -88 67.5z" />
<glyph unicode="V" d="M39 1184q0 68 90 67h211q88 0 88 -67q0 -33 -17.5 -48.5t-37 -17.5t-58.5 -2l148 -590q70 -281 80 -362h2q8 76 80 371l145 581q-39 0 -58.5 2t-37 17.5t-17.5 48.5q0 68 88 67h211q90 0 91 -67q0 -33 -18.5 -48.5t-38 -17.5t-60.5 -2l-266 -1057q-8 -29 -19.5 -46 t-30 -24t-32 -8t-40 -1t-40 1t-31.5 8t-29.5 24.5t-19.5 45.5l-266 1057q-41 0 -60.5 2t-38 17.5t-18.5 48.5z" />
<glyph unicode="W" d="M25 1183.5q0 67.5 88 67.5h161q88 0 88 -67.5t-88 -67.5h-45l99 -749q16 -119 20 -197h2q4 96 50 309t59 234q23 39 84 39q66 0 88 -50q4 -4 27.5 -102t49 -230t27.5 -200q6 74 37 313l84 633h-45q-88 0 -88 67.5t88 67.5h162q88 0 88 -67q0 -59 -60 -68q-12 -2 -16 -7 t-6 -26l-141 -1022q-4 -27 -8.5 -40t-25 -27t-56.5 -14q-61 0 -84 40q-10 20 -62.5 261t-58.5 303h-2q-4 -59 -57.5 -303t-63.5 -263q-25 -39 -82 -38q-37 0 -56.5 14t-24.5 27.5t-9 41.5l-142 1020l-6 33q-75 0 -75 67.5z" />
<glyph unicode="X" d="M59 67.5q0 67.5 88 67.5h41l265 533l-240 448h-41q-90 0 -90 67.5t90 67.5h213q90 0 90 -67.5t-86 -67.5l143 -270l132 270q-92 0 -92.5 67.5t90.5 67.5h212q90 0 90.5 -67.5t-90.5 -67.5h-38l-228 -448l285 -533h41q90 0 90 -67.5t-90 -67.5h-213q-90 0 -90 67.5 t90 67.5l-189 373l-174 -373q92 0 92.5 -67.5t-90.5 -67.5h-213q-88 0 -88 67.5z" />
<glyph unicode="Y" d="M41 1183.5q0 67.5 90 67.5h213q88 0 88 -67q0 -31 -16.5 -47.5t-31.5 -18.5t-42 -2l55 -115q129 -281 144 -339h2q14 59 149 346l51 108q-27 0 -42 2t-31.5 18.5t-16.5 47.5q0 68 88 67h213q90 0 90 -67.5t-90 -67.5h-36l-297 -616v-365h43q90 0 90 -67.5t-90 -67.5h-242 q-90 0 -90 67.5t90 67.5h43v365l-297 616h-37q-90 0 -90 67.5z" />
<glyph unicode="Z" d="M98 78q0 33 19 59l669 979h-507v-104q0 -27 -2.5 -42.5t-20.5 -30.5t-55 -15t-55.5 15t-20.5 30.5t-2 42.5v151q0 53 19.5 70.5t70.5 17.5h686q27 0 41 -2t30.5 -20.5t16.5 -54.5q0 -31 -18 -60l-670 -979h543v144q0 27 2 42t20.5 30.5t55 15.5t55 -15.5t20.5 -31 t2 -41.5v-191q0 -53 -18 -70.5t-70 -17.5h-723q-27 0 -41 2t-30.5 20.5t-16.5 55.5z" />
<glyph unicode="[" d="M449 -82v1415q0 53 18 70.5t70 17.5h376q88 0 88 -67.5t-88 -67.5h-309v-1321h309q88 0 88 -67.5t-88 -67.5h-376q-51 0 -69.5 18.5t-18.5 69.5z" />
<glyph unicode="\" d="M121 1341q0 35 24.5 57.5t53.5 22.5q51 0 77 -57l674 -1405q14 -31 15 -49q0 -35 -25 -57.5t-53 -22.5q-51 0 -78 57l-674 1405q-14 31 -14 49z" />
<glyph unicode="]" d="M84 -102.5q0 67.5 88 67.5h309v1321h-309q-88 0 -88 67.5t88 67.5h377q51 0 69.5 -18.5t18.5 -69.5v-1415q0 -53 -18.5 -70.5t-69.5 -17.5h-377q-88 0 -88 67.5z" />
<glyph unicode="^" d="M151 1062q1 34 35 50l334 162q25 10 47 0l334 -162q53 -27 28.5 -80t-77.5 -31l-309 134l-310 -134q-33 -14 -58 6.5t-24 54.5z" />
<glyph unicode="_" d="M117 -193q0 78 102 78h647q102 0 103 -80q0 -78 -103 -77h-647q-102 -1 -102 79z" />
<glyph unicode="`" d="M322 1194q0 31 22.5 54.5t54.5 23.5q10 0 45 -12l265 -103q57 -23 57 -63q0 -10 -4 -25.5t-22.5 -40t-47.5 -24.5q-12 0 -162 57l-147 55q-61 25 -61 78z" />
<glyph unicode="a" d="M98 272q0 88 63.5 152.5t166 94.5t198 43t191.5 13q0 86 -66.5 137.5t-189.5 51.5q-59 0 -82 -2q-20 -2 -24.5 -6t-4.5 -17q-2 -49 -32.5 -73.5t-65.5 -24.5q-45 0 -72.5 28.5t-27.5 71.5q0 55 31.5 90t89 48.5t94 16.5t92.5 3q201 0 307 -92t106 -229v-428 q37 -14 117 -15q86 0 86 -67q0 -31 -17.5 -47.5t-35.5 -18.5t-55 -2q-180 0 -228 70q-115 -80 -293 -80q-152 0 -250 82.5t-98 199.5zM254 272q0 -59 58.5 -103t146.5 -44q102 0 178 39q37 18 55.5 42.5t21.5 41t3 45.5v151q-190 -2 -326.5 -48t-136.5 -124z" />
<glyph unicode="b" d="M23 1183.5q0 67.5 88 67.5h151q51 0 69.5 -18.5t18.5 -69.5v-362q119 92 254 92q172 0 292 -132t120 -319q0 -190 -129 -321t-303 -131q-133 0 -234 96q0 -27 -2 -41t-20.5 -29.5t-55 -15.5t-55 16.5t-20.5 30.5t-2 41v1028h-84q-88 0 -88 67.5zM350 397q0 -92 61.5 -182 t166.5 -90q111 0 196.5 91t85.5 226q0 131 -77.5 223.5t-186.5 92.5q-94 0 -170 -65.5t-76 -153.5v-142z" />
<glyph unicode="c" d="M147 442q0 72 26 147t79 146.5t152.5 117.5t228.5 46q55 0 91 -3t94.5 -16.5t90 -48t31.5 -90.5q0 -43 -27.5 -71.5t-72.5 -28.5q-39 0 -68 25.5t-31 68.5q0 20 -8 23q-31 6 -104 6q-92 0 -160 -35t-101.5 -88t-49 -103.5t-15.5 -95.5q0 -133 92 -225t221 -92 q145 0 193 113q18 47 76 47q78 0 78 -64q0 -18 -16.5 -51t-51.5 -76t-111.5 -73.5t-177.5 -30.5q-195 0 -327 133t-132 319z" />
<glyph unicode="d" d="M70 440q0 193 128 323t302 130q129 0 235 -84v307h-84q-88 0 -88 67.5t88 67.5h152q51 0 69.5 -18.5t18.5 -69.5v-1028h84q88 0 88 -67.5t-88 -67.5h-152q-33 0 -51 6t-25.5 21.5t-9.5 29t-2 39.5q-111 -106 -254 -106q-170 0 -290.5 132t-120.5 318zM225 440 q0 -133 79 -224t183 -91q106 0 177 90t71 188v138q0 86 -67.5 151.5t-157.5 65.5q-115 0 -200 -92.5t-85 -225.5z" />
<glyph unicode="e" d="M109 444q0 188 131 321.5t319 133.5q193 0 298.5 -122t105.5 -314q0 -37 -15.5 -55.5t-31 -20.5t-42.5 -2h-604q25 -117 120 -188.5t212 -71.5q158 0 207 113q14 31 29.5 39t46.5 8q78 0 78 -64q0 -23 -19.5 -58.5t-59.5 -75.5t-117 -68.5t-175 -28.5q-205 0 -344 134 t-139 320zM272 518h531q-29 246 -244 246q-102 0 -183 -70t-104 -176z" />
<glyph unicode="f" d="M86 67.5q0 67.5 90 67.5h199v613h-199q-88 0 -88 67.5t90 67.5h197v100q0 135 98 207t229 72q205 0 205 -132q0 -45 -29.5 -71.5t-66.5 -26.5q-33 0 -62.5 24.5t-33.5 69.5q-184 0 -185 -149v-94h244q88 0 88 -67.5t-88 -67.5h-244v-613h199q90 0 90 -67.5t-90 -67.5 h-553q-90 0 -90 67.5z" />
<glyph unicode="g" d="M61 -164q0 76 40 144.5t106 105.5q-49 61 -49 147q0 74 41 140q-66 82 -66 190q0 135 101.5 232.5t248.5 97.5q111 0 201 -59q94 70 215 69q74 0 115 -34.5t41 -86.5q0 -37 -25.5 -62.5t-62.5 -25.5q-70 0 -88 72q-59 -6 -99 -29q51 -82 51 -174q0 -135 -101 -232.5 t-249 -97.5q-100 0 -184 50q-10 -25 -10 -50q0 -10 2 -26.5t24.5 -44t63.5 -27.5q35 -4 151.5 -5t120.5 -1q168 -6 271.5 -84t103.5 -209q0 -133 -140.5 -218t-341 -85t-341 85t-140.5 218zM190 -164q0 -66 101.5 -118t251 -52t251 52.5t101.5 117.5q0 47 -27.5 81 t-62.5 50.5t-100.5 24.5t-105.5 9t-114 1h-112q-78 -2 -130.5 -52.5t-52.5 -113.5zM289 563q0 -82 57 -139t135 -57q80 0 137.5 58t57.5 138q0 82 -57.5 139.5t-137.5 57.5q-78 0 -135 -57.5t-57 -139.5z" />
<glyph unicode="h" d="M23 67.5q0 67.5 88 67.5h84v981h-84q-88 0 -88 67.5t88 67.5h151q51 0 69.5 -18.5t18.5 -69.5v-372q16 16 45 36.5t93.5 43t132.5 22.5q270 0 270 -297v-461h84q88 0 88 -67.5t-88 -67.5h-307q-88 0 -88 67.5t88 67.5h67v457q0 92 -27.5 129t-97.5 37q-94 0 -177 -68.5 t-83 -202.5v-352h84q88 0 88 -67.5t-88 -67.5h-323q-88 0 -88 67.5z" />
<glyph unicode="i" d="M162 67.5q0 67.5 90 67.5h240v613h-224q-90 0 -90 67.5t90 67.5h291q51 0 69.5 -18.5t18.5 -69.5v-660h207q90 0 90 -67.5t-90 -67.5h-602q-90 0 -90 67.5zM434 1139q0 45 33 77.5t78 32.5t77.5 -32.5t32.5 -77.5t-32.5 -78t-77.5 -33t-78 33t-33 78z" />
<glyph unicode="j" d="M98 -303q0 49 31 75.5t70 26.5q45 0 73 -35q23 -25 23 -88q51 -6 104 -6q106 0 160 70q53 74 53 184v824h-256q-90 0 -90 67.5t90 67.5h324q51 0 69.5 -18.5t18.5 -69.5v-875q0 -63 -19.5 -125.5t-59.5 -123t-117.5 -98.5t-180.5 -38q-293 0 -293 162zM547 1139 q0 45 31.5 77.5t79 32.5t79 -32.5t31.5 -77.5t-31.5 -78t-79 -33t-79 33t-31.5 78z" />
<glyph unicode="k" d="M41 67.5q0 67.5 90 67.5h92v981h-92q-90 0 -90 67.5t90 67.5h131q51 0 69.5 -18.5t18.5 -69.5v-704l312 289h-58q-88 0 -88 67.5t88 67.5h314q88 0 88 -67.5t-88 -67.5h-68l-246 -230l2 -4l297 -379h60q88 0 88 -67.5t-88 -67.5h-240q-90 0 -90 68q0 31 18.5 47t37 18 t52.5 2l-231 297l-160 -147v-150h92q90 0 90 -67.5t-90 -67.5h-311q-90 0 -90 67.5z" />
<glyph unicode="l" d="M119 67.5q0 67.5 90 67.5h256v981h-256q-90 0 -90 67.5t90 67.5h323q51 0 70 -18.5t19 -69.5v-1028h256q90 0 90 -67.5t-90 -67.5h-668q-90 0 -90 67.5z" />
<glyph unicode="m" d="M-10 68q0 33 17.5 48t36.5 17t60 2v613q-41 0 -60 2t-36.5 17t-17.5 48q0 68 88 68h65q78 0 90 -58q78 68 175 68q102 0 155 -100q76 100 205 100q63 0 105 -34t56.5 -90t18.5 -87t4 -66v-481q41 0 60.5 -2t37 -17.5t17.5 -47.5q0 -68 -88 -68h-145q-88 0 -88.5 67.5 t79.5 67.5v471q0 152 -63 152q-66 0 -118 -72t-52 -192v-359q41 0 60.5 -2t37 -17.5t17.5 -47.5q0 -68 -89 -68h-145q-88 0 -88 67.5t80 67.5v471q0 152 -64 152q-66 0 -118 -72t-52 -192v-359q41 0 60.5 -2t37 -17.5t17.5 -47.5q0 -68 -88 -68h-180q-88 0 -88 68z" />
<glyph unicode="n" d="M23 67.5q0 67.5 88 67.5h84v613h-84q-88 0 -88 67.5t88 67.5h151q57 0 72.5 -20.5t15.5 -71.5q16 16 45 36.5t93.5 43t132.5 22.5q270 0 270 -297v-461h84q88 0 88 -67.5t-88 -67.5h-307q-88 0 -88 67.5t88 67.5h67v457q0 92 -27.5 129t-97.5 37q-94 0 -177 -68.5 t-83 -202.5v-352h84q88 0 88 -67.5t-88 -67.5h-323q-88 0 -88 67.5z" />
<glyph unicode="o" d="M113 442q0 188 126 322.5t304 134.5t304 -134t126 -323q0 -190 -127 -321t-303 -131t-303 131t-127 321zM268 457q0 -139 81 -235.5t193.5 -96.5t193.5 96t81 236q0 131 -82 219t-192.5 88t-192.5 -88t-82 -219z" />
<glyph unicode="p" d="M23 -387q0 68 88 68h84v1067h-84q-88 0 -88 67.5t88 67.5h151q23 0 33 -1t25.5 -8.5t22.5 -26t7 -46.5q119 92 254 92q172 0 292 -132t120 -319q0 -190 -129 -321t-303 -131q-133 0 -234 96v-405h84q88 0 88 -68t-88 -68h-323q-88 0 -88 68zM350 397q0 -92 61.5 -182 t166.5 -90q111 0 196.5 91t85.5 226q0 131 -77.5 223.5t-186.5 92.5q-94 0 -170 -65.5t-76 -153.5v-142z" />
<glyph unicode="q" d="M76 440q0 188 133 320.5t319 132.5q143 0 250 -102q0 37 3 54t20.5 32.5t54.5 15.5t55.5 -15.5t20.5 -31t2 -41.5v-1124h92q90 0 90 -68t-90 -68h-340q-90 0 -90 68t90 68h92v421q-113 -113 -272 -112q-176 0 -303 132t-127 318zM231 440q0 -131 84 -223t199 -92 q111 0 187.5 87t76.5 185v80q0 104 -67.5 192.5t-175.5 88.5q-121 0 -212.5 -91.5t-91.5 -226.5z" />
<glyph unicode="r" d="M61 67.5q0 67.5 91 67.5h155v613h-155q-90 0 -90.5 67.5t90.5 67.5h223q51 0 69.5 -18.5t18.5 -69.5v-62q160 160 350 160q106 0 151.5 -42t45.5 -93q0 -43 -28 -69.5t-67 -26.5q-33 0 -62.5 21.5t-31.5 74.5q-152 0 -255 -108.5t-103 -274.5v-240h217q88 0 88 -67.5 t-88 -67.5h-528q-91 0 -91 67.5z" />
<glyph unicode="s" d="M150 78v182q0 27 2 41t20 30.5t55 16.5q41 0 54.5 -13t23.5 -44q57 -166 252 -166q127 0 191.5 38t64.5 97q0 35 -23.5 60.5t-72.5 42t-80 23.5t-92 17q-76 12 -114 19.5t-101.5 27t-95 43t-58 65.5t-26.5 97q0 27 7 53.5t31.5 62.5t64.5 63.5t115.5 46t174.5 18.5 q129 0 213 -37q18 37 63 37q68 0 68 -88v-127q0 -27 -2 -42t-20.5 -30.5t-55.5 -15.5q-74 0 -78 66q-2 20 -6 32.5t-20.5 30.5t-58.5 28.5t-107 10.5q-94 0 -155.5 -19.5t-80 -42t-18.5 -47.5q0 -27 19.5 -46t63.5 -32.5t78.5 -20.5t102.5 -17l130 -24q38 -7 87 -26.5 t88 -48.5q94 -72 94 -182q0 -29 -7 -57.5t-31.5 -68.5t-64.5 -69.5t-116 -51t-174 -21.5q-156 0 -260 67q-23 -68 -78 -67q-67 0 -67 88z" />
<glyph unicode="t" d="M51 815.5q0 67.5 90 67.5h170v164q0 27 2 41t20.5 30.5t55.5 16.5t55.5 -15.5t20.5 -31t2 -41.5v-164h328q88 0 88 -67.5t-88 -67.5h-328v-463q0 -160 151 -160q61 0 107.5 39t48.5 100q2 72 78 72q78 0 78 -70q0 -113 -92.5 -194.5t-227.5 -81.5q-125 0 -212 69.5 t-87 221.5v467h-172q-88 0 -88 67.5z" />
<glyph unicode="u" d="M23 815.5q0 67.5 88 67.5h151q51 0 69.5 -18.5t18.5 -69.5v-551q0 -31 3 -45.5t16.5 -35t47.5 -29.5t91 -9q82 0 154.5 43t72.5 149v431h-84q-88 0 -88 67.5t88 67.5h152q51 0 69.5 -18.5t18.5 -69.5v-660h84q88 0 88 -67.5t-88 -67.5h-152q-80 0 -90 59 q-92 -70 -237 -69q-301 0 -301 248v510h-84q-88 0 -88 67.5z" />
<glyph unicode="v" d="M51 815.5q0 67.5 88 67.5h238q88 0 88 -67.5t-88 -67.5h-47l213 -631l213 631h-47q-88 0 -88 67.5t88 67.5h237q88 0 88 -67.5t-88 -67.5h-55l-229 -680q-12 -37 -35 -55.5t-39.5 -20.5t-45 -2t-45 2t-39 20.5t-34.5 55.5l-229 680h-56q-88 0 -88 67.5z" />
<glyph unicode="w" d="M33 815q0 68 90 68h242q88 0 88 -67.5t-88 -67.5h-97l99 -586h2q10 51 61 229q14 49 20.5 67.5t19.5 40t30.5 26.5t46.5 5q53 0 72.5 -26.5t44.5 -116.5q49 -160 57 -223h2l94 584h-96q-88 0 -88 67.5t88 67.5h242q90 0 90 -68q0 -31 -18.5 -47t-36 -18t-50.5 -2 l-121 -678q-6 -37 -24.5 -55.5t-32.5 -21.5t-41 -3q-61 0 -79.5 24.5t-43.5 108.5q-55 193 -59 242h-2q-6 -66 -58 -242q-25 -86 -44 -109.5t-83 -23.5q-31 0 -47 4t-32.5 22.5t-22.5 55.5l-121 676q-33 0 -50 2t-35.5 18t-18.5 47z" />
<glyph unicode="x" d="M61 67.5q0 67.5 91 67.5h75l248 320l-233 293h-78q-90 0 -90 67.5t90 67.5h237q88 0 88 -67.5t-92 -67.5l140 -185l137 185q-29 0 -45.5 2t-33.5 18t-17 47q0 68 88 68h237q90 0 90 -67.5t-90 -67.5h-76l-227 -293l254 -320h78q90 0 90 -67.5t-90 -67.5h-238 q-88 0 -88 68q0 31 17.5 47t34 18t47.5 2l-168 234l-162 -234q31 0 48 -2t35.5 -18.5t18.5 -46.5q0 -68 -90 -68h-235q-91 0 -91 67.5z" />
<glyph unicode="y" d="M55 815q0 68 95 68h227q94 0 94 -68q0 -49 -39 -61q-14 -6 -92 -6l119 -302q94 -248 102 -286h2q10 39 88 280l105 308q-86 0 -101 6q-37 16 -37 61q0 68 95 68h227q94 0 94 -68q0 -47 -43 -63q-12 -4 -102 -4l-314 -918q-41 -121 -122.5 -208t-192.5 -87 q-76 0 -124 53.5t-48 118.5q0 45 26.5 71.5t69.5 26.5q39 0 67 -24.5t30 -71.5l-19 -39q106 8 164 123q12 25 42 113t30 94q-2 10 -9 27l-286 721q-92 0 -105 4q-43 14 -43 63z" />
<glyph unicode="z" d="M68 76q0 43 30 71l643 601h-483v-50q0 -27 -2 -42t-20.5 -30.5t-55.5 -15.5t-55.5 15.5t-20.5 31t-2 41.5v97q0 53 19.5 70.5t71.5 17.5h696q27 0 41 -2t30.5 -20.5t16.5 -53.5q0 -43 -31 -72l-643 -600h524v72q0 27 2 42t20.5 30.5t55.5 15.5t55.5 -15.5t20.5 -31 t2 -41.5v-119q0 -53 -18.5 -70.5t-69.5 -17.5h-739q-27 0 -41.5 2t-30.5 20.5t-16 53.5z" />
<glyph unicode="{" d="M115 625q0 70 92 69q113 0 186 31q49 20 60.5 44t11.5 67v325q0 150 133 211q106 49 283 49q90 0 90 -67.5t-82 -67.5q-94 -2 -153.5 -14t-82 -37t-27.5 -40t-5 -42v-326q0 -141 -111 -202q111 -57 111 -201v-326q0 -27 5 -42t26.5 -39.5t81 -37t153.5 -14.5 q84 0 84 -67.5t-90 -67.5q-178 0 -285 51q-131 61 -131 209v326q0 27 -5 43t-26.5 42.5t-81 41t-151.5 14.5q-86 0 -86 68z" />
<glyph unicode="|" d="M465 -68v1387q0 102 80 102q78 0 78 -102v-1387q0 -102 -80 -102q-78 0 -78 102z" />
<glyph unicode="}" d="M115 -102.5q0 67.5 82 67.5q94 2 153.5 14.5t82 37t27.5 40t5 41.5v326q0 141 110 203q-111 57 -110 200v326q0 27 -5 42t-26.5 40t-81 37t-153.5 14q-84 0 -84 67.5t92 67.5q176 0 282 -51q131 -61 132 -209v-325q0 -29 3 -44.5t20.5 -35t51.5 -33.5q76 -29 187 -29 q88 0 88 -69q0 -68 -94 -68q-109 0 -187 -31q-47 -20 -58 -43.5t-11 -66.5v-326q0 -139 -115 -203q-106 -57 -299 -57q-92 0 -92 67.5z" />
<glyph unicode="~" d="M184 567q0 41 105 119q90 68 162 68q70 0 145 -76q35 -35 49 -35q47 0 131 78q33 33 60 33q29 0 49 -21.5t20 -48.5q0 -41 -104 -119q-90 -68 -162 -67q-70 0 -145 75q-35 35 -50 35q-47 0 -131 -78q-33 -33 -59 -32q-29 0 -49.5 21t-20.5 48z" />
<glyph unicode="&#xa0;" />
<glyph unicode="&#xa1;" d="M432 -344l23 672q0 37 14 55t28.5 21.5t45 3.5t46 -3.5t29 -21.5t13.5 -55l22 -672q2 -55 -24.5 -88t-48 -38t-37.5 -5q-18 0 -40 6t-47.5 38t-23.5 87zM432 686q0 47 32 79t79 32t78.5 -32t31.5 -79t-31.5 -79t-78.5 -32t-79 32t-32 79z" />
<glyph unicode="&#xa2;" d="M147 442q0 143 95.5 279.5t287.5 169.5v127q0 27 19.5 47t48.5 20t48.5 -20.5t19.5 -46.5v-119q274 -6 274 -158q0 -43 -27.5 -71.5t-72.5 -28.5q-39 0 -68 25.5t-31 68.5q0 20 -8 23q-12 4 -67 6v-635q104 14 143 109q18 47 76 47q78 0 78 -64q0 -16 -13.5 -47 t-44.5 -69.5t-93 -70.5t-146 -42v-127q0 -29 -19.5 -48.5t-48.5 -19.5t-48.5 19.5t-19.5 48.5v131q-166 27 -274.5 153.5t-108.5 292.5zM303 442q0 -109 64.5 -192.5t162.5 -112.5v615q-82 -23 -136 -82.5t-72.5 -117t-18.5 -110.5z" />
<glyph unicode="&#xa3;" d="M31 170q0 88 79.5 139t188.5 51q49 0 94 -18q-23 72 -96 207h-125q-33 0 -55.5 22.5t-22.5 55t22.5 55.5t55.5 23h45q-39 96 -39 178q0 154 114 261t271.5 107t271 -97t113.5 -243q0 -41 -29.5 -70.5t-70.5 -29.5t-70.5 29.5t-29.5 70.5t28 70q-27 53 -85 84t-128 31 q-94 0 -161.5 -61.5t-67.5 -151.5q0 -82 39 -178h344q33 0 55.5 -23t22.5 -55.5t-22.5 -55t-55.5 -22.5h-264q109 -193 114 -307q145 -106 248 -107q86 0 86 160q0 33 22.5 55.5t55.5 22.5t55.5 -22.5t22.5 -55.5q0 -127 -66.5 -221t-175.5 -94q-23 0 -43 3t-45 13t-38 14 t-42 22.5t-36 22.5t-41.5 27.5t-37.5 26.5q-41 -61 -121.5 -95t-174.5 -34q-84 0 -144.5 55t-60.5 135zM186 170q0 -35 50 -35q133 0 165 49q-55 20 -102 21q-113 0 -113 -35z" />
<glyph unicode="&#xa4;" d="M213 297q-55 55 18 129l39 39q-45 74 -45 162t45 161l-39 39q-72 74 -16 129q51 51 127 -16l39 -39q74 45 164 45q88 0 162 -45l36 37q72 72 129 16q55 -55 -18 -129l-37 -34q45 -78 45 -164t-45 -164l39 -37q74 -74 16 -129q-59 -59 -127 16l-38 39q-74 -45 -162 -45 q-90 0 -164 45l-39 -39q-72 -71 -129 -16zM381 626.5q0 -67.5 48 -115.5t115.5 -48t115 48t47.5 115.5t-47.5 116t-115 48.5t-115.5 -48.5t-48 -116z" />
<glyph unicode="&#xa5;" d="M41 1183.5q0 67.5 90 67.5h213q88 0 88 -67q0 -31 -16.5 -47.5t-31.5 -18.5t-42 -2l55 -115l62 -135h168l65 142l51 108q-27 0 -42 2t-31.5 18.5t-16.5 47.5q0 68 88 67h213q90 0 90 -67.5t-90 -67.5h-36l-121 -250h73q33 0 55.5 -22.5t22.5 -55t-22.5 -55t-55.5 -22.5 h-147l-82 -168h229q33 0 55.5 -22.5t22.5 -55.5t-22.5 -55.5t-55.5 -22.5h-249v-252h43q90 0 90 -67.5t-90 -67.5h-242q-90 0 -90 67.5t90 67.5h43v252h-248q-33 0 -55.5 22.5t-22.5 55.5t22.5 55.5t55.5 22.5h227l-82 168h-145q-33 0 -55.5 22.5t-22.5 55t22.5 55 t55.5 22.5h72l-121 250h-37q-90 0 -90 67.5zM526 711q2 -6 15 -49h2q10 35 16 49h-33z" />
<glyph unicode="&#xa6;" d="M465 -68v555q0 29 23.5 48.5t56.5 19.5q31 0 54.5 -19.5t23.5 -48.5v-555q0 -102 -80 -102q-78 0 -78 102zM465 764v555q0 102 80 102q78 0 78 -102v-555q0 -29 -24 -48.5t-54 -19.5q-33 0 -56.5 19.5t-23.5 48.5z" />
<glyph unicode="&#xa7;" d="M80 627q0 131 108 204q-47 63 -47 138q0 135 120 219t284 84t283.5 -66.5t119.5 -191.5q0 -41 -29.5 -71t-70.5 -30t-70.5 30t-29.5 71q0 31 20 61q-45 41 -223 41q-102 0 -175 -37t-73 -110q0 -25 13.5 -46.5t28.5 -35t49 -29.5t50 -22l58 -21l211 -72q131 -47 217 -137 t86 -209q0 -129 -109 -207q47 -63 47 -135q0 -135 -119.5 -219t-283.5 -84t-284 66.5t-120 191.5q0 41 30 71t71 30t70.5 -30t29.5 -71q0 -31 -20 -61q45 -41 223 -41q102 0 175 37t73 110q0 25 -13.5 46.5t-29 35t-49 29.5t-50.5 22l-57 21l-211 72q-131 47 -217 137 t-86 209zM236 627q0 -129 198 -199l211 -72q90 -33 141 -65q68 27 68 106q0 129 -199 199l-211 72q-76 25 -141 65q-67 -30 -67 -106z" />
<glyph unicode="&#xa8;" d="M260 1137q0 41 29.5 70.5t70.5 29.5t71 -29.5t30 -70.5t-30 -70t-71 -29t-70.5 29t-29.5 70zM627 1137q0 41 29.5 70.5t70.5 29.5t70.5 -29.5t29.5 -70.5t-29.5 -70t-70.5 -29t-70.5 29t-29.5 70z" />
<glyph unicode="&#xa9;" d="M0 544.5q0 225.5 159.5 384t385 158.5t384 -158.5t158.5 -384t-158.5 -385t-384 -159.5t-385 159.5t-159.5 385zM84 544.5q0 -190.5 135 -325.5t325.5 -135t325 135t134.5 325.5t-134.5 325t-325 134.5t-325.5 -134.5t-135 -325zM260 545q0 143 78 242.5t186 99.5 q74 0 138 -47q18 31 25 39t24 8q37 0 37 -47v-148q0 -47 -43 -47q-25 0 -32 9.5t-9 29.5q-10 59 -48 95t-88 36q-74 0 -130 -78t-56 -194q0 -115 55.5 -193t130.5 -78q20 0 44 5.5t57 38t35 87.5q2 31 41 31q43 0 43 -39q0 -78 -66 -136t-158 -58q-111 0 -187.5 99.5 t-76.5 244.5z" />
<glyph unicode="&#xaa;" d="M203 834q0 61 44 106t115.5 66.5t138 31t134.5 9.5q0 59 -46 95t-132 36q-43 0 -57.5 -2t-17.5 -4.5t-3 -10.5q-2 -37 -23.5 -53t-46.5 -16q-31 0 -50 19t-19 50q0 111 215 111q139 0 213.5 -64.5t74.5 -160.5v-299q25 -10 82 -11q61 0 62 -47q0 -23 -13.5 -33t-25.5 -12 t-39 -2q-127 0 -158 49q-74 -57 -205 -57q-106 0 -174.5 58.5t-68.5 140.5zM270 526.5q0 20.5 19.5 33.5t48.5 13h414q29 0 48 -13t19 -33.5t-19.5 -34t-47.5 -13.5h-414q-29 0 -48.5 13.5t-19.5 34zM311 834q0 -41 41 -72t103 -31q74 0 125 27q55 27 55 90v106 q-133 -2 -228.5 -34.5t-95.5 -85.5z" />
<glyph unicode="&#xab;" d="M96 627q0 33 29 61l440 381q23 18 37 18q18 0 31.5 -17t13.5 -48q0 -35 -31 -61l-385 -334l385 -334q31 -27 31 -62q0 -31 -13 -48t-32 -17q-14 0 -37 18l-446 385q-23 23 -23 58zM428 627q0 33 29 61l440 381q23 18 37 18q18 0 31.5 -17t13.5 -48q0 -35 -31 -61 l-385 -334l385 -334q31 -27 31 -62q0 -31 -13.5 -48t-31.5 -17q-14 0 -37 18l-446 385q-23 23 -23 58z" />
<glyph unicode="&#xac;" d="M78 782.5q0 32.5 22.5 55t55.5 22.5h774q33 0 55.5 -22.5t22.5 -55.5v-313q0 -33 -22.5 -55.5t-55.5 -22.5t-55.5 22.5t-22.5 55.5v236h-696q-33 0 -55.5 22.5t-22.5 55z" />
<glyph unicode="&#xad;" d="M117 627q0 78 102 78h647q102 0 103 -80q0 -78 -103 -78h-647q-102 0 -102 80z" />
<glyph unicode="&#xae;" d="M0 544.5q0 225.5 159.5 384t385 158.5t384 -158.5t158.5 -384t-158.5 -385t-384 -159.5t-385 159.5t-159.5 385zM84 544.5q0 -190.5 135 -325.5t325.5 -135t325 135t134.5 325.5t-134.5 325t-325 134.5t-325.5 -134.5t-135 -325zM299 252q0 37 47 37h23v522h-23 q-47 0 -47 35q0 37 47 37h195q92 0 152.5 -55.5t60.5 -129.5q0 -96 -90 -151q35 -25 51 -66q8 -25 8 -100q0 -102 29 -102q16 0 16 47q2 35 41 34q43 0 43 -38q0 -41 -26.5 -78t-73.5 -37q-51 0 -82 39q-29 39 -29 151q0 68 -25 88q-33 29 -84 29h-79v-225h22q47 0 47 -37 q0 -35 -47 -35h-129q-47 0 -47 35zM453 586h73q68 0 106 34.5t38 77.5t-38 78t-106 35h-73v-225z" />
<glyph unicode="&#xaf;" d="M154 1138.5q0 69.5 88 69.5h606q88 0 88 -69.5t-88 -69.5h-604q-90 0 -90 69.5z" />
<glyph unicode="&#xb0;" d="M242 950q0 125 89 213t214 88t213 -88t88 -213t-88 -214t-213 -89q-127 0 -215 88t-88 215zM397 950q0 -61 43 -104t105 -43q59 0 102 43t43 104q0 59 -43 102.5t-102 43.5q-61 0 -104.5 -43.5t-43.5 -102.5z" />
<glyph unicode="&#xb1;" d="M78 80q0 78 102 78h285v229h-285q-102 0 -102 80q0 78 102 78h285v284q0 102 80 103q78 0 78 -103v-284h282q102 0 103 -80q0 -78 -103 -78h-282v-229h282q102 0 103 -80q0 -78 -103 -78h-725q-102 0 -102 80z" />
<glyph unicode="&#xb2;" d="M328 670q0 18 18 32l217 181q121 104 121 188q0 61 -46 97t-112 36q-82 0 -114 -65q14 -12 14 -35q0 -25 -15.5 -38t-33.5 -13q-16 0 -32.5 12t-16.5 41q0 68 57 117t145 49q98 0 165 -56.5t67 -144.5q0 -106 -117 -211q-16 -14 -84 -68l-106 -87h229q0 16 1 24 t10.5 15.5t27.5 7.5q39 0 39 -43v-29q0 -27 -9.5 -35t-35.5 -8h-344q-45 0 -45 33z" />
<glyph unicode="&#xb3;" d="M317 772q0 51 52 51q20 0 34.5 -14t14.5 -35l-2 -6q-2 -14 -8 -23l-2 -4q39 -47 139 -47q66 0 106.5 38t40.5 85q0 45 -39 84t-112 39h-43q-43 0 -43 35q0 23 14 28t61 9q61 4 93 28q39 37 39 86q0 31 -33 54.5t-84 23.5q-72 0 -105 -26q8 -12 9 -29q0 -20 -14.5 -34.5 t-35 -14.5t-36 14t-15.5 37q0 57 52.5 89t144.5 32q86 0 140 -42t54 -104q0 -92 -80 -147q111 -53 111 -162q0 -76 -62.5 -133t-163 -57t-164 38.5t-63.5 106.5z" />
<glyph unicode="&#xb4;" d="M322 1094q0 41 57 63l264 103q35 12 45 12q33 0 55.5 -23.5t22.5 -54.5q0 -53 -61 -78l-148 -55q-150 -57 -162 -57q-61 4 -73 90z" />
<glyph unicode="&#xb5;" d="M20 -387q0 31 17.5 47t34.5 18q8 2 121 3v1064h-117q-18 2 -37 18.5t-19 49.5q0 68 93 68h145q57 0 74.5 -18.5t17.5 -74.5v-540q0 -33 3 -48.5t16.5 -36t47.5 -29.5t89 -9q100 0 166 51q63 49 63 146v423h-117q-18 2 -36.5 18.5t-18.5 49.5q0 68 92 68h146 q57 0 74.5 -18.5t17.5 -74.5v-653h117q18 -2 36.5 -18.5t18.5 -48.5q0 -68 -92 -68h-146q-84 0 -94 59q-102 -70 -237 -69q-88 0 -146 18v-327h117q18 -2 36.5 -18.5t18.5 -49.5q0 -68 -92 -68h-317q-93 0 -93 68z" />
<glyph unicode="&#xb6;" d="M98 944q0 203 131 340t314 137h432q61 0 61 -47t-61 -47h-88v-1651q0 -74 -39 -73.5t-39 73.5v1651h-123v-1651q0 -74 -39 -73.5t-39 73.5v791q-86 2 -172 31.5t-162.5 85t-126 149.5t-49.5 211z" />
<glyph unicode="&#xb7;" d="M406 627q0 55 39.5 96t99.5 41q55 0 96 -40t41 -99q0 -55 -40 -96.5t-99 -41.5q-55 0 -96 40.5t-41 99.5z" />
<glyph unicode="&#xb8;" d="M330 -354q0 68 88 67h45q274 0 274 78q0 31 -36.5 52.5t-96.5 23.5q-33 2 -50 18.5t-19.5 30.5t-2.5 43v55q0 29 2.5 44.5t20.5 31.5t55 16t54.5 -15t20.5 -33.5t3 -63.5q111 -25 158 -81t47 -122q0 -74 -43 -120t-122 -64.5t-137.5 -23.5t-144.5 -5q-43 0 -62 2 t-36.5 17.5t-17.5 48.5z" />
<glyph unicode="&#xb9;" d="M367 1114q0 33 28 33q80 4 125 102q8 23 33 23q33 0 33 -43v-524h92q45 0 45 -35q0 -33 -45 -33h-260q-45 0 -45 33q0 35 45 35h90v415q-49 -41 -105 -41q-36 0 -36 35z" />
<glyph unicode="&#xba;" d="M244 952q0 131 88 225.5t213 94.5t213 -94.5t88 -225.5q0 -133 -89 -225t-212 -92t-212 92t-89 225zM311 526.5q0 20.5 19.5 33.5t48.5 13h332q29 0 48 -13t19 -33.5t-19.5 -34t-47.5 -13.5h-332q-29 0 -48.5 13.5t-19.5 34zM352 963q0 -98 56.5 -165t136.5 -67 q78 0 134 67.5t56 164.5q0 92 -56 153.5t-134 61.5t-135.5 -61.5t-57.5 -153.5z" />
<glyph unicode="&#xbb;" d="M94 231q0 35 31 62l385 334l-385 334q-31 27 -31 61q0 31 13.5 48t31.5 17q14 0 37 -18l440 -381q29 -29 29 -61q0 -35 -22 -58l-447 -385q-23 -18 -37 -18q-18 0 -31.5 17t-13.5 48zM426 231q0 35 31 62l385 334l-385 334q-31 27 -31 61q0 31 13.5 48t31.5 17 q14 0 37 -18l440 -381q29 -29 29 -61q0 -35 -23 -58l-446 -385q-23 -18 -37 -18q-18 0 -31.5 17t-13.5 48z" />
<glyph unicode="&#xbc;" d="M53 1114q0 33 29 33q80 4 125 102q8 23 33 23q33 0 32 -43v-524h93q45 0 45 -35q0 -33 -45 -33h-261q-45 0 -45 33q0 35 45 35h91v415q-49 -41 -105 -41q-37 0 -37 35zM195 41q0 20 10 37l651 1171q25 39 70 39q33 0 55.5 -22.5t22.5 -55.5q0 -20 -11 -36l-653 -1170 q-20 -41 -68 -41q-33 0 -55 22.5t-22 55.5zM553 217.5q0 24.5 10 36.5l232 364q14 23 45 23h32q27 0 35 -8t8 -35v-358h76q43 0 43 -33q0 -35 -43 -35h-76v-104h62q45 0 45 -33q0 -35 -45 -35h-186q-43 0 -43 35q0 33 43 33h61v104h-254q-27 0 -36 10.5t-9 35zM631 240h221 v346z" />
<glyph unicode="&#xbd;" d="M53 1114q0 33 29 33q80 4 125 102q8 23 33 23q33 0 32 -43v-524h93q45 0 45 -35q0 -33 -45 -33h-261q-45 0 -45 33q0 35 45 35h91v415q-49 -41 -105 -41q-37 0 -37 35zM139 41q0 20 11 37l653 1171q20 39 67 39q33 0 55.5 -22.5t22.5 -55.5q0 -20 -10 -36l-653 -1170 q-20 -41 -68 -41q-33 0 -55.5 22.5t-22.5 55.5zM600 35q0 14 21 33l215 180q121 98 120 188q0 61 -45 97t-110 36q-86 0 -115 -67q14 -14 14 -35q0 -23 -15 -36t-34 -13q-10 0 -20 3t-20.5 16.5t-10.5 33.5q0 68 58.5 117t146.5 49q96 0 162.5 -56.5t66.5 -144.5 q0 -104 -114 -211q-14 -14 -83 -68.5t-108 -88.5h227q0 16 1 24t10.5 16.5t27.5 8.5q39 0 39 -45v-27q0 -27 -9 -36t-34 -9h-346q-45 0 -45 35z" />
<glyph unicode="&#xbe;" d="M45 772q0 51 51 51q20 0 34.5 -14t14.5 -35l-2 -6q-2 -14 -8 -23l-2 -4q39 -47 139 -47q66 0 107 38t41 85q0 45 -39 84t-113 39h-43q-43 0 -43 35q0 23 14.5 28t61.5 9q61 4 92 28q39 37 39 86q0 31 -32.5 54.5t-84.5 23.5q-72 0 -104 -26q8 -12 8 -29 q0 -20 -14.5 -34.5t-35 -14.5t-35.5 14t-15 37q0 57 52 89t144 32q86 0 140.5 -42t54.5 -104q0 -92 -80 -147q111 -53 111 -162q0 -76 -62.5 -133t-163 -57t-164 38.5t-63.5 106.5zM195 41q0 20 10 37l651 1171q25 39 70 39q33 0 55.5 -22.5t22.5 -55.5q0 -20 -11 -36 l-653 -1170q-20 -41 -68 -41q-33 0 -55 22.5t-22 55.5zM553 217.5q0 24.5 10 36.5l232 364q14 23 45 23h32q27 0 35 -8t8 -35v-358h76q43 0 43 -33q0 -35 -43 -35h-76v-104h62q45 0 45 -33q0 -35 -45 -35h-186q-43 0 -43 35q0 33 43 33h61v104h-254q-27 0 -36 10.5t-9 35z M631 240h221v346z" />
<glyph unicode="&#xbf;" d="M129 -211q0 55 28.5 106.5t75.5 79.5q188 123 189 308v36q0 57 19.5 73t68.5 16q61 0 74.5 -21.5t13.5 -87.5q0 -254 -242 -414q-37 -25 -54 -44t-17 -52q0 -119 229 -119q195 0 264 60q-18 23 -18 59q0 43 29.5 70.5t68.5 27.5q41 0 70.5 -26.5t29.5 -75.5 q0 -59 -25.5 -104.5t-72.5 -72t-91 -43t-103.5 -22.5t-88 -7t-63.5 -1q-162 0 -273.5 60.5t-111.5 193.5zM399 686q0 47 32 79t79 32t79 -32t32 -79t-32 -79t-79 -32t-79 32t-32 79z" />
<glyph unicode="&#xc0;" d="M57 68q0 33 18.5 48t39 17t65.5 2l246 1067q8 39 25.5 56.5t35 20.5t56.5 3q35 0 52 -3t37.5 -21.5t29.5 -55.5l243 -1067q45 0 65.5 -2t39 -17.5t18.5 -47.5q0 -68 -90 -68h-217q-90 0 -90 68q0 31 18.5 47t38 18t57.5 2l-40 187h-324l-41 -187q39 0 58.5 -2t38 -18.5 t18.5 -46.5q0 -68 -90 -68h-218q-90 0 -90 68zM322 1575q0 31 22.5 54.5t54.5 23.5q10 0 45 -13l265 -102q57 -23 57 -63q0 -10 -4 -25.5t-22.5 -40.5t-47.5 -25q-12 0 -162 58l-147 55q-61 25 -61 78zM412 457h260l-101 471q-25 119 -28 153h-2q-8 -112 -129 -624z" />
<glyph unicode="&#xc1;" d="M57 68q0 33 18.5 48t39 17t65.5 2l246 1067q8 39 25.5 56.5t35 20.5t56.5 3q35 0 52 -3t37.5 -21.5t29.5 -55.5l243 -1067q45 0 65.5 -2t39 -17.5t18.5 -47.5q0 -68 -90 -68h-217q-90 0 -90 68q0 31 18.5 47t38 18t57.5 2l-40 187h-324l-41 -187q39 0 58.5 -2t38 -18.5 t18.5 -46.5q0 -68 -90 -68h-218q-90 0 -90 68zM322 1475q0 41 57 63l264 102q35 12 45 13q33 0 55.5 -23.5t22.5 -54.5q0 -53 -61 -78l-148 -55q-150 -57 -162 -58q-61 5 -73 91zM412 457h260l-101 471q-25 119 -28 153h-2q-8 -112 -129 -624z" />
<glyph unicode="&#xc2;" d="M57 68q0 33 18.5 48t39 17t65.5 2l246 1067q8 39 25.5 56.5t35 20.5t56.5 3q35 0 52 -3t37.5 -21.5t29.5 -55.5l243 -1067q45 0 65.5 -2t39 -17.5t18.5 -47.5q0 -68 -90 -68h-217q-90 0 -90 68q0 31 18.5 47t38 18t57.5 2l-40 187h-324l-41 -187q39 0 58.5 -2t38 -18.5 t18.5 -46.5q0 -68 -90 -68h-218q-90 0 -90 68zM247.5 1407q-18.5 55 37.5 76l241 88q18 6 39 0l242 -88q53 -20 34.5 -75.5t-73.5 -39.5l-223 68l-223 -68q-56 -16 -74.5 39zM412 457h260l-101 471q-25 119 -28 153h-2q-8 -112 -129 -624z" />
<glyph unicode="&#xc3;" d="M57 68q0 33 18.5 48t39 17t65.5 2l246 1067q8 39 25.5 56.5t35 20.5t56.5 3q35 0 52 -3t37.5 -21.5t29.5 -55.5l243 -1067q45 0 65.5 -2t39 -17.5t18.5 -47.5q0 -68 -90 -68h-217q-90 0 -90 68q0 31 18.5 47t38 18t57.5 2l-40 187h-324l-41 -187q39 0 58.5 -2t38 -18.5 t18.5 -46.5q0 -68 -90 -68h-218q-90 0 -90 68zM184 1434q0 41 105 118q90 68 162 68q70 0 145 -76q35 -35 49 -35q47 0 131 78q33 33 60 33q29 0 49 -21.5t20 -48.5q0 -41 -104 -118q-90 -68 -162 -68q-70 0 -145 76q-35 35 -50 35q-47 0 -131 -78q-33 -33 -59 -33 q-29 0 -49.5 21.5t-20.5 48.5zM412 457h260l-101 471q-25 119 -28 153h-2q-8 -112 -129 -624z" />
<glyph unicode="&#xc4;" d="M57 68q0 33 18.5 48t39 17t65.5 2l246 1067q8 39 25.5 56.5t35 20.5t56.5 3q35 0 52 -3t37.5 -21.5t29.5 -55.5l243 -1067q45 0 65.5 -2t39 -17.5t18.5 -47.5q0 -68 -90 -68h-217q-90 0 -90 68q0 31 18.5 47t38 18t57.5 2l-40 187h-324l-41 -187q39 0 58.5 -2t38 -18.5 t18.5 -46.5q0 -68 -90 -68h-218q-90 0 -90 68zM225 1462q0 41 30 71t71 30t70.5 -30t29.5 -71t-29.5 -69.5t-70.5 -28.5t-71 28.5t-30 69.5zM412 457h260l-101 471q-25 119 -28 153h-2q-8 -112 -129 -624zM662 1462q0 41 29.5 71t70.5 30t70.5 -30t29.5 -71t-29.5 -69.5 t-70.5 -28.5t-70.5 28.5t-29.5 69.5z" />
<glyph unicode="&#xc5;" d="M57 68q0 33 18.5 48t39 17t65.5 2l246 1067q8 39 25.5 56.5t35 20.5t56.5 3q35 0 52 -3t37.5 -21.5t29.5 -55.5l243 -1067q45 0 65.5 -2t39 -17.5t18.5 -47.5q0 -68 -90 -68h-217q-90 0 -90 68q0 31 18.5 47t38 18t57.5 2l-40 187h-324l-41 -187q39 0 58.5 -2t38 -18.5 t18.5 -46.5q0 -68 -90 -68h-218q-90 0 -90 68zM344 1429.5q0 61.5 58.5 104.5t142.5 43t142 -43t58 -104.5t-58 -104.5t-142 -43t-142.5 43t-58.5 104.5zM412 457h260l-101 471q-25 119 -28 153h-2q-8 -112 -129 -624zM446 1429.5q0 -28.5 29 -49t70 -20.5t69.5 20.5 t28.5 49t-28.5 49t-69.5 20.5t-70 -20.5t-29 -49z" />
<glyph unicode="&#xc6;" d="M49 68q0 31 17.5 47t34 18t46.5 2l203 981q-80 0 -80 67.5t90 67.5h570q51 0 69.5 -18.5t18.5 -69.5v-151q0 -88 -63.5 -88t-63.5 88v104h-217v-401h221q88 0 88 -67.5t-88 -67.5h-221v-445h233v135q0 88 63.5 88t63.5 -88v-182q0 -53 -18.5 -70.5t-69.5 -17.5h-391 q-90 0 -90 67.5t82 67.5v230h-221l-47 -230q92 0 92 -67.5t-90 -67.5h-144q-88 0 -88 68zM352 500h195v616h-68z" />
<glyph unicode="&#xc7;" d="M84 627q0 270 146.5 457.5t351.5 187.5q139 0 260 -90q33 59 47 74.5t45 15.5q68 0 67 -88v-281q0 -27 -2 -42t-20 -30.5t-55 -15.5q-33 0 -50.5 11.5t-21.5 23.5t-8 39q-20 113 -91 180.5t-163 67.5q-139 0 -244.5 -146.5t-105.5 -365.5q0 -213 104.5 -361.5 t247.5 -148.5q23 0 53.5 7t78.5 28.5t83 77t39 134.5q4 55 78 56q78 0 77 -72q0 -115 -79.5 -212t-206.5 -136v-4q111 -25 158 -81t47 -122q0 -74 -43 -120t-122 -64.5t-137.5 -23.5t-144.5 -5q-43 0 -62.5 2t-37 17.5t-17.5 48.5q0 68 88 67h45q274 0 275 78q0 31 -37 52.5 t-96 23.5q-33 2 -50.5 18.5t-19.5 30.5t-2 43v21q-199 12 -337 197.5t-138 449.5z" />
<glyph unicode="&#xc8;" d="M51 67.5q0 67.5 88 67.5h56v981h-56q-88 0 -88 67.5t88 67.5h768q51 0 69.5 -18.5t18.5 -69.5v-151q0 -27 -2 -42.5t-20.5 -30.5t-55 -15t-55 15t-20.5 30.5t-2 42.5v104h-490v-401h258q0 45 3 64.5t20.5 34.5t54.5 15t55.5 -15t20.5 -30.5t2 -42.5v-188q0 -27 -2 -42 t-20.5 -30.5t-55.5 -15.5t-54.5 15.5t-20.5 35t-3 64.5h-258v-445h535v135q0 27 2 42.5t20.5 30.5t55 15t55 -15t20.5 -30.5t2 -42.5v-182q0 -53 -18 -70.5t-70 -17.5h-813q-88 0 -88 67.5zM322 1575q0 31 22.5 54.5t54.5 23.5q10 0 45 -13l265 -102q57 -23 57 -63 q0 -10 -4 -25.5t-22.5 -40.5t-47.5 -25q-12 0 -162 58l-147 55q-61 25 -61 78z" />
<glyph unicode="&#xc9;" d="M51 67.5q0 67.5 88 67.5h56v981h-56q-88 0 -88 67.5t88 67.5h768q51 0 69.5 -18.5t18.5 -69.5v-151q0 -27 -2 -42.5t-20.5 -30.5t-55 -15t-55 15t-20.5 30.5t-2 42.5v104h-490v-401h258q0 45 3 64.5t20.5 34.5t54.5 15t55.5 -15t20.5 -30.5t2 -42.5v-188q0 -27 -2 -42 t-20.5 -30.5t-55.5 -15.5t-54.5 15.5t-20.5 35t-3 64.5h-258v-445h535v135q0 27 2 42.5t20.5 30.5t55 15t55 -15t20.5 -30.5t2 -42.5v-182q0 -53 -18 -70.5t-70 -17.5h-813q-88 0 -88 67.5zM322 1475q0 41 57 63l264 102q35 12 45 13q33 0 55.5 -23.5t22.5 -54.5 q0 -53 -61 -78l-148 -55q-150 -57 -162 -58q-61 5 -73 91z" />
<glyph unicode="&#xca;" d="M51 67.5q0 67.5 88 67.5h56v981h-56q-88 0 -88 67.5t88 67.5h768q51 0 69.5 -18.5t18.5 -69.5v-151q0 -27 -2 -42.5t-20.5 -30.5t-55 -15t-55 15t-20.5 30.5t-2 42.5v104h-490v-401h258q0 45 3 64.5t20.5 34.5t54.5 15t55.5 -15t20.5 -30.5t2 -42.5v-188q0 -27 -2 -42 t-20.5 -30.5t-55.5 -15.5t-54.5 15.5t-20.5 35t-3 64.5h-258v-445h535v135q0 27 2 42.5t20.5 30.5t55 15t55 -15t20.5 -30.5t2 -42.5v-182q0 -53 -18 -70.5t-70 -17.5h-813q-88 0 -88 67.5zM247.5 1407q-18.5 55 37.5 76l241 88q18 6 39 0l242 -88q53 -20 34.5 -75.5 t-73.5 -39.5l-223 68l-223 -68q-56 -16 -74.5 39z" />
<glyph unicode="&#xcb;" d="M51 67.5q0 67.5 88 67.5h56v981h-56q-88 0 -88 67.5t88 67.5h768q51 0 69.5 -18.5t18.5 -69.5v-151q0 -27 -2 -42.5t-20.5 -30.5t-55 -15t-55 15t-20.5 30.5t-2 42.5v104h-490v-401h258q0 45 3 64.5t20.5 34.5t54.5 15t55.5 -15t20.5 -30.5t2 -42.5v-188q0 -27 -2 -42 t-20.5 -30.5t-55.5 -15.5t-54.5 15.5t-20.5 35t-3 64.5h-258v-445h535v135q0 27 2 42.5t20.5 30.5t55 15t55 -15t20.5 -30.5t2 -42.5v-182q0 -53 -18 -70.5t-70 -17.5h-813q-88 0 -88 67.5zM225 1462q0 41 30 71t71 30t70.5 -30t29.5 -71t-29.5 -69.5t-70.5 -28.5t-71 28.5 t-30 69.5zM662 1462q0 41 29.5 71t70.5 30t70.5 -30t29.5 -71t-29.5 -69.5t-70.5 -28.5t-70.5 28.5t-29.5 69.5z" />
<glyph unicode="&#xcc;" d="M162 67.5q0 67.5 90 67.5h213v981h-213q-90 0 -90 67.5t90 67.5h582q90 0 90 -67.5t-90 -67.5h-213v-981h213q90 0 90 -67.5t-90 -67.5h-582q-90 0 -90 67.5zM322 1575q0 31 22.5 54.5t54.5 23.5q10 0 45 -13l265 -102q57 -23 57 -63q0 -10 -4 -25.5t-22.5 -40.5 t-47.5 -25q-12 0 -162 58l-147 55q-61 25 -61 78z" />
<glyph unicode="&#xcd;" d="M162 67.5q0 67.5 90 67.5h213v981h-213q-90 0 -90 67.5t90 67.5h582q90 0 90 -67.5t-90 -67.5h-213v-981h213q90 0 90 -67.5t-90 -67.5h-582q-90 0 -90 67.5zM322 1475q0 41 57 63l264 102q35 12 45 13q33 0 55.5 -23.5t22.5 -54.5q0 -53 -61 -78l-148 -55 q-150 -57 -162 -58q-61 5 -73 91z" />
<glyph unicode="&#xce;" d="M162 67.5q0 67.5 90 67.5h213v981h-213q-90 0 -90 67.5t90 67.5h582q90 0 90 -67.5t-90 -67.5h-213v-981h213q90 0 90 -67.5t-90 -67.5h-582q-90 0 -90 67.5zM247.5 1407q-18.5 55 37.5 76l241 88q18 6 39 0l242 -88q53 -20 34.5 -75.5t-73.5 -39.5l-223 68l-223 -68 q-56 -16 -74.5 39z" />
<glyph unicode="&#xcf;" d="M162 67.5q0 67.5 90 67.5h213v981h-213q-90 0 -90 67.5t90 67.5h582q90 0 90 -67.5t-90 -67.5h-213v-981h213q90 0 90 -67.5t-90 -67.5h-582q-90 0 -90 67.5zM225 1462q0 41 30 71t71 30t70.5 -30t29.5 -71t-29.5 -69.5t-70.5 -28.5t-71 28.5t-30 69.5zM662 1462 q0 41 29.5 71t70.5 30t70.5 -30t29.5 -71t-29.5 -69.5t-70.5 -28.5t-70.5 28.5t-29.5 69.5z" />
<glyph unicode="&#xd0;" d="M37 68q0 68 88 67h39v424h-49q-29 0 -48.5 19.5t-19.5 48t19.5 48t48.5 19.5h49v422h-39q-88 0 -88 68q0 31 16.5 47t31.5 18t40 2h426q201 0 328 -189.5t127 -445.5q0 -254 -128 -435t-327 -181h-426q-25 0 -40 2t-31.5 18.5t-16.5 47.5zM319 135h189q160 0 251 144.5 t91 336.5q0 195 -91 347.5t-251 152.5h-189v-422h115q29 0 48.5 -19.5t19.5 -48t-19.5 -48t-48.5 -19.5h-115v-424z" />
<glyph unicode="&#xd1;" d="M55 67.5q0 67.5 90 67.5h43v981h-43q-90 0 -90 67.5t90 67.5h144q31 0 47 -3t37.5 -21.5t36.5 -57.5l274 -759l84 -248h2v954h-43q-90 0 -90 67.5t90 67.5h213q90 0 90 -67.5t-90 -67.5h-43v-1028q0 -59 -21.5 -73.5t-72.5 -14.5q-35 0 -52.5 3t-39 21.5t-35.5 57.5 l-275 760l-84 248h-2v-955h43q90 0 90.5 -67.5t-90.5 -67.5h-213q-90 0 -90 67.5zM184 1434q0 41 105 118q90 68 162 68q70 0 145 -76q35 -35 49 -35q47 0 131 78q33 33 60 33q29 0 49 -21.5t20 -48.5q0 -41 -104 -118q-90 -68 -162 -68q-70 0 -145 76q-35 35 -50 35 q-47 0 -131 -78q-33 -33 -59 -33q-29 0 -49.5 21.5t-20.5 48.5z" />
<glyph unicode="&#xd2;" d="M117 626.5q0 159.5 4 254t22.5 174.5t43 116.5t77.5 62.5t113.5 32t165 6t165 -6t115 -32t78 -62.5t42 -116.5t22.5 -175.5t4 -255t-4 -254t-22.5 -174t-43.5 -116.5t-78 -62.5t-113.5 -31.5t-165 -6t-165 6t-114.5 31.5t-77.5 62.5t-42 116.5t-22.5 175t-4 255zM272 643 q0 -287 25 -391q18 -74 69.5 -105.5t176.5 -31.5q133 0 182 34.5t68 118.5q20 102 20 375q0 254 -18 346q-20 88 -71.5 118t-180.5 30q-121 0 -175.5 -27t-72.5 -111q-23 -98 -23 -356zM322 1575q0 31 22.5 54.5t54.5 23.5q10 0 45 -13l265 -102q57 -23 57 -63 q0 -10 -4 -25.5t-22.5 -40.5t-47.5 -25q-12 0 -162 58l-147 55q-61 25 -61 78z" />
<glyph unicode="&#xd3;" d="M117 626.5q0 159.5 4 254t22.5 174.5t43 116.5t77.5 62.5t113.5 32t165 6t165 -6t115 -32t78 -62.5t42 -116.5t22.5 -175.5t4 -255t-4 -254t-22.5 -174t-43.5 -116.5t-78 -62.5t-113.5 -31.5t-165 -6t-165 6t-114.5 31.5t-77.5 62.5t-42 116.5t-22.5 175t-4 255zM272 643 q0 -287 25 -391q18 -74 69.5 -105.5t176.5 -31.5q133 0 182 34.5t68 118.5q20 102 20 375q0 254 -18 346q-20 88 -71.5 118t-180.5 30q-121 0 -175.5 -27t-72.5 -111q-23 -98 -23 -356zM322 1475q0 41 57 63l264 102q35 12 45 13q33 0 55.5 -23.5t22.5 -54.5q0 -53 -61 -78 l-148 -55q-150 -57 -162 -58q-61 5 -73 91z" />
<glyph unicode="&#xd4;" d="M117 626.5q0 159.5 4 254t22.5 174.5t43 116.5t77.5 62.5t113.5 32t165 6t165 -6t115 -32t78 -62.5t42 -116.5t22.5 -175.5t4 -255t-4 -254t-22.5 -174t-43.5 -116.5t-78 -62.5t-113.5 -31.5t-165 -6t-165 6t-114.5 31.5t-77.5 62.5t-42 116.5t-22.5 175t-4 255z M247.5 1407q-18.5 55 37.5 76l241 88q18 6 39 0l242 -88q53 -20 34.5 -75.5t-73.5 -39.5l-223 68l-223 -68q-56 -16 -74.5 39zM272 643q0 -287 25 -391q18 -74 69.5 -105.5t176.5 -31.5q133 0 182 34.5t68 118.5q20 102 20 375q0 254 -18 346q-20 88 -71.5 118t-180.5 30 q-121 0 -175.5 -27t-72.5 -111q-23 -98 -23 -356z" />
<glyph unicode="&#xd5;" d="M117 626.5q0 159.5 4 254t22.5 174.5t43 116.5t77.5 62.5t113.5 32t165 6t165 -6t115 -32t78 -62.5t42 -116.5t22.5 -175.5t4 -255t-4 -254t-22.5 -174t-43.5 -116.5t-78 -62.5t-113.5 -31.5t-165 -6t-165 6t-114.5 31.5t-77.5 62.5t-42 116.5t-22.5 175t-4 255z M184 1434q0 41 105 118q90 68 162 68q70 0 145 -76q35 -35 49 -35q47 0 131 78q33 33 60 33q29 0 49 -21.5t20 -48.5q0 -41 -104 -118q-90 -68 -162 -68q-70 0 -145 76q-35 35 -50 35q-47 0 -131 -78q-33 -33 -59 -33q-29 0 -49.5 21.5t-20.5 48.5zM272 643q0 -287 25 -391 q18 -74 69.5 -105.5t176.5 -31.5q133 0 182 34.5t68 118.5q20 102 20 375q0 254 -18 346q-20 88 -71.5 118t-180.5 30q-121 0 -175.5 -27t-72.5 -111q-23 -98 -23 -356z" />
<glyph unicode="&#xd6;" d="M117 626.5q0 159.5 4 254t22.5 174.5t43 116.5t77.5 62.5t113.5 32t165 6t165 -6t115 -32t78 -62.5t42 -116.5t22.5 -175.5t4 -255t-4 -254t-22.5 -174t-43.5 -116.5t-78 -62.5t-113.5 -31.5t-165 -6t-165 6t-114.5 31.5t-77.5 62.5t-42 116.5t-22.5 175t-4 255z M225 1462q0 41 30 71t71 30t70.5 -30t29.5 -71t-29.5 -69.5t-70.5 -28.5t-71 28.5t-30 69.5zM272 643q0 -287 25 -391q18 -74 69.5 -105.5t176.5 -31.5q133 0 182 34.5t68 118.5q20 102 20 375q0 254 -18 346q-20 88 -71.5 118t-180.5 30q-121 0 -175.5 -27t-72.5 -111 q-23 -98 -23 -356zM662 1462q0 41 29.5 71t70.5 30t70.5 -30t29.5 -71t-29.5 -69.5t-70.5 -28.5t-70.5 28.5t-29.5 69.5z" />
<glyph unicode="&#xd7;" d="M213 297q-55 55 18 129l201 201l-201 200q-72 74 -16 129q51 51 127 -16l201 -203l200 201q72 72 129 16q55 -55 -18 -129l-199 -198l201 -201q74 -74 16 -129q-59 -59 -127 16l-202 201l-201 -201q-72 -71 -129 -16z" />
<glyph unicode="&#xd8;" d="M117 627q0 160 4 254t22.5 174t43 116.5t77.5 62.5t113.5 32t165.5 6q96 0 127 -2q8 25 28 96q8 20 12.5 29.5t19.5 23t36 13.5q23 0 47.5 -16.5t24.5 -51.5q0 -4 -35 -121q68 -27 102.5 -83t50.5 -183q12 -113 13 -352q0 -160 -4 -254.5t-22.5 -174t-43.5 -116.5 t-78 -62.5t-113.5 -31.5t-164.5 -6q-96 0 -127 2q-8 -25 -29 -97l-12 -29.5t-19.5 -22.5t-36.5 -13q-23 0 -47 16.5t-24 50.5q0 4 35 121q-68 27 -103 83t-51 183q-12 113 -12 353zM244 625q0 -190 14 -296t27.5 -129.5t42.5 -43.5l301 979q-25 2 -86 2q-59 0 -91 -2 t-74 -13.5t-67.5 -38t-38.5 -69.5q-28 -100 -28 -389zM457 117q25 -2 86 -2q59 0 91 2t74 13t67.5 38t37.5 70q29 100 29 389q0 190 -14.5 295.5t-28 129t-41.5 44.5z" />
<glyph unicode="&#xd9;" d="M6 1183.5q0 67.5 88 67.5h266q88 0 88.5 -67.5t-88.5 -67.5h-55v-690q0 -143 74 -227t164 -84t163.5 84t73.5 227v690h-55q-88 0 -88 67.5t88 67.5h266q88 0 88 -67.5t-88 -67.5h-55v-694q0 -193 -117 -317.5t-276 -124.5q-158 0 -275.5 125.5t-117.5 316.5v694h-56 q-88 0 -88 67.5zM322 1575q0 31 22.5 54.5t54.5 23.5q10 0 45 -13l265 -102q57 -23 57 -63q0 -10 -4 -25.5t-22.5 -40.5t-47.5 -25q-12 0 -162 58l-147 55q-61 25 -61 78z" />
<glyph unicode="&#xda;" d="M6 1183.5q0 67.5 88 67.5h266q88 0 88.5 -67.5t-88.5 -67.5h-55v-690q0 -143 74 -227t164 -84t163.5 84t73.5 227v690h-55q-88 0 -88 67.5t88 67.5h266q88 0 88 -67.5t-88 -67.5h-55v-694q0 -193 -117 -317.5t-276 -124.5q-158 0 -275.5 125.5t-117.5 316.5v694h-56 q-88 0 -88 67.5zM322 1475q0 41 57 63l264 102q35 12 45 13q33 0 55.5 -23.5t22.5 -54.5q0 -53 -61 -78l-148 -55q-150 -57 -162 -58q-61 5 -73 91z" />
<glyph unicode="&#xdb;" d="M6 1183.5q0 67.5 88 67.5h266q88 0 88.5 -67.5t-88.5 -67.5h-55v-690q0 -143 74 -227t164 -84t163.5 84t73.5 227v690h-55q-88 0 -88 67.5t88 67.5h266q88 0 88 -67.5t-88 -67.5h-55v-694q0 -193 -117 -317.5t-276 -124.5q-158 0 -275.5 125.5t-117.5 316.5v694h-56 q-88 0 -88 67.5zM247.5 1407q-18.5 55 37.5 76l241 88q18 6 39 0l242 -88q53 -20 34.5 -75.5t-73.5 -39.5l-223 68l-223 -68q-56 -16 -74.5 39z" />
<glyph unicode="&#xdc;" d="M6 1183.5q0 67.5 88 67.5h266q88 0 88.5 -67.5t-88.5 -67.5h-55v-690q0 -143 74 -227t164 -84t163.5 84t73.5 227v690h-55q-88 0 -88 67.5t88 67.5h266q88 0 88 -67.5t-88 -67.5h-55v-694q0 -193 -117 -317.5t-276 -124.5q-158 0 -275.5 125.5t-117.5 316.5v694h-56 q-88 0 -88 67.5zM225 1462q0 41 30 71t71 30t70.5 -30t29.5 -71t-29.5 -69.5t-70.5 -28.5t-71 28.5t-30 69.5zM662 1462q0 41 29.5 71t70.5 30t70.5 -30t29.5 -71t-29.5 -69.5t-70.5 -28.5t-70.5 28.5t-29.5 69.5z" />
<glyph unicode="&#xdd;" d="M41 1183.5q0 67.5 90 67.5h213q88 0 88 -67q0 -31 -16.5 -47.5t-31.5 -18.5t-42 -2l55 -115q129 -281 144 -339h2q14 59 149 346l51 108q-27 0 -42 2t-31.5 18.5t-16.5 47.5q0 68 88 67h213q90 0 90 -67.5t-90 -67.5h-36l-297 -616v-365h43q90 0 90 -67.5t-90 -67.5h-242 q-90 0 -90 67.5t90 67.5h43v365l-297 616h-37q-90 0 -90 67.5zM322 1475q0 41 57 63l264 102q35 12 45 13q33 0 55.5 -23.5t22.5 -54.5q0 -53 -61 -78l-148 -55q-150 -57 -162 -58q-61 5 -73 91z" />
<glyph unicode="&#xde;" d="M59 68q0 23 13.5 41t33.5 22q10 4 111 4v981q-98 0 -108 2q-49 12 -50 66q0 68 95 67h284q94 0 94 -67q0 -23 -13 -41.5t-34 -22.5q-10 -4 -110 -4v-72h213q106 0 187 -35.5t125 -93t65.5 -116t21.5 -115.5q0 -141 -104.5 -249.5t-274.5 -108.5h-233v-191q98 0 108 -2 q49 -12 49 -65q0 -68 -94 -68h-284q-95 0 -95 68zM375 461h180q133 0 203.5 69.5t70.5 155.5q0 20 -7 48t-30.5 72t-83 73.5t-147.5 29.5h-186v-448z" />
<glyph unicode="&#xdf;" d="M33 67.5q0 67.5 90 67.5h102v613h-102q-90 0 -90 67.5t90 67.5h102v135q0 127 125 190q106 53 246 54q150 0 259.5 -61.5t109.5 -164.5q0 -137 -158 -231q82 -57 149.5 -174t67.5 -273q0 -162 -113.5 -265t-261.5 -103q-92 0 -148.5 47t-56.5 113q0 41 27 66.5t63.5 25.5 t63.5 -26t27 -64q0 -18 -2 -23q8 -4 26 -4q82 0 150.5 64.5t68.5 168.5q0 139 -78.5 260t-224.5 130q-31 2 -47 21t-16 46q0 68 80 68q100 4 163.5 52t63.5 99q0 33 -61.5 62.5t-153.5 29.5q-80 0 -139 -24q-35 -14 -51.5 -30.5t-19.5 -29t-3 -34.5v-920q0 -53 -18.5 -70.5 t-69.5 -17.5h-170q-90 0 -90 67.5z" />
<glyph unicode="&#xe0;" d="M98 272q0 88 63.5 152.5t166 94.5t198 43t191.5 13q0 86 -66.5 137.5t-189.5 51.5q-59 0 -82 -2q-20 -2 -24.5 -6t-4.5 -17q-2 -49 -32.5 -73.5t-65.5 -24.5q-45 0 -72.5 28.5t-27.5 71.5q0 55 31.5 90t89 48.5t94 16.5t92.5 3q201 0 307 -92t106 -229v-428 q37 -14 117 -15q86 0 86 -67q0 -31 -17.5 -47.5t-35.5 -18.5t-55 -2q-180 0 -228 70q-115 -80 -293 -80q-152 0 -250 82.5t-98 199.5zM254 272q0 -59 58.5 -103t146.5 -44q102 0 178 39q37 18 55.5 42.5t21.5 41t3 45.5v151q-190 -2 -326.5 -48t-136.5 -124zM322 1194 q0 31 22.5 54.5t54.5 23.5q10 0 45 -12l265 -103q57 -23 57 -63q0 -10 -4 -25.5t-22.5 -40t-47.5 -24.5q-12 0 -162 57l-147 55q-61 25 -61 78z" />
<glyph unicode="&#xe1;" d="M98 272q0 88 63.5 152.5t166 94.5t198 43t191.5 13q0 86 -66.5 137.5t-189.5 51.5q-59 0 -82 -2q-20 -2 -24.5 -6t-4.5 -17q-2 -49 -32.5 -73.5t-65.5 -24.5q-45 0 -72.5 28.5t-27.5 71.5q0 55 31.5 90t89 48.5t94 16.5t92.5 3q201 0 307 -92t106 -229v-428 q37 -14 117 -15q86 0 86 -67q0 -31 -17.5 -47.5t-35.5 -18.5t-55 -2q-180 0 -228 70q-115 -80 -293 -80q-152 0 -250 82.5t-98 199.5zM254 272q0 -59 58.5 -103t146.5 -44q102 0 178 39q37 18 55.5 42.5t21.5 41t3 45.5v151q-190 -2 -326.5 -48t-136.5 -124zM322 1094 q0 41 57 63l264 103q35 12 45 12q33 0 55.5 -23.5t22.5 -54.5q0 -53 -61 -78l-148 -55q-150 -57 -162 -57q-61 4 -73 90z" />
<glyph unicode="&#xe2;" d="M98 272q0 88 63.5 152.5t166 94.5t198 43t191.5 13q0 86 -66.5 137.5t-189.5 51.5q-59 0 -82 -2q-20 -2 -24.5 -6t-4.5 -17q-2 -49 -32.5 -73.5t-65.5 -24.5q-45 0 -72.5 28.5t-27.5 71.5q0 55 31.5 90t89 48.5t94 16.5t92.5 3q201 0 307 -92t106 -229v-428 q37 -14 117 -15q86 0 86 -67q0 -31 -17.5 -47.5t-35.5 -18.5t-55 -2q-180 0 -228 70q-115 -80 -293 -80q-152 0 -250 82.5t-98 199.5zM251 1029q-32 50 19 83l242 154q31 20 61 0l246 -156q51 -33 19.5 -82t-82.5 -18l-211 127l-211 -127q-51 -31 -83 19zM254 272 q0 -59 58.5 -103t146.5 -44q102 0 178 39q37 18 55.5 42.5t21.5 41t3 45.5v151q-190 -2 -326.5 -48t-136.5 -124z" />
<glyph unicode="&#xe3;" d="M98 272q0 88 63.5 152.5t166 94.5t198 43t191.5 13q0 86 -66.5 137.5t-189.5 51.5q-59 0 -82 -2q-20 -2 -24.5 -6t-4.5 -17q-2 -49 -32.5 -73.5t-65.5 -24.5q-45 0 -72.5 28.5t-27.5 71.5q0 55 31.5 90t89 48.5t94 16.5t92.5 3q201 0 307 -92t106 -229v-428 q37 -14 117 -15q86 0 86 -67q0 -31 -17.5 -47.5t-35.5 -18.5t-55 -2q-180 0 -228 70q-115 -80 -293 -80q-152 0 -250 82.5t-98 199.5zM184 1079q0 41 105 119q90 68 162 68q70 0 145 -76q35 -35 49 -35q47 0 131 78q33 33 60 33q29 0 49 -21.5t20 -48.5q0 -41 -104 -119 q-90 -68 -162 -67q-70 0 -145 75q-35 35 -50 35q-47 0 -131 -78q-33 -33 -59 -32q-29 0 -49.5 21t-20.5 48zM254 272q0 -59 58.5 -103t146.5 -44q102 0 178 39q37 18 55.5 42.5t21.5 41t3 45.5v151q-190 -2 -326.5 -48t-136.5 -124z" />
<glyph unicode="&#xe4;" d="M98 272q0 88 63.5 152.5t166 94.5t198 43t191.5 13q0 86 -66.5 137.5t-189.5 51.5q-59 0 -82 -2q-20 -2 -24.5 -6t-4.5 -17q-2 -49 -32.5 -73.5t-65.5 -24.5q-45 0 -72.5 28.5t-27.5 71.5q0 55 31.5 90t89 48.5t94 16.5t92.5 3q201 0 307 -92t106 -229v-428 q37 -14 117 -15q86 0 86 -67q0 -31 -17.5 -47.5t-35.5 -18.5t-55 -2q-180 0 -228 70q-115 -80 -293 -80q-152 0 -250 82.5t-98 199.5zM254 272q0 -59 58.5 -103t146.5 -44q102 0 178 39q37 18 55.5 42.5t21.5 41t3 45.5v151q-190 -2 -326.5 -48t-136.5 -124zM260 1137 q0 41 29.5 70.5t70.5 29.5t71 -29.5t30 -70.5t-30 -70t-71 -29t-70.5 29t-29.5 70zM627 1137q0 41 29.5 70.5t70.5 29.5t70.5 -29.5t29.5 -70.5t-29.5 -70t-70.5 -29t-70.5 29t-29.5 70z" />
<glyph unicode="&#xe5;" d="M98 272q0 88 63.5 152.5t166 94.5t198 43t191.5 13q0 86 -66.5 137.5t-189.5 51.5q-59 0 -82 -2q-20 -2 -24.5 -6t-4.5 -17q-2 -49 -32.5 -73.5t-65.5 -24.5q-45 0 -72.5 28.5t-27.5 71.5q0 55 31.5 90t89 48.5t94 16.5t92.5 3q201 0 307 -92t106 -229v-428 q37 -14 117 -15q86 0 86 -67q0 -31 -17.5 -47.5t-35.5 -18.5t-55 -2q-180 0 -228 70q-115 -80 -293 -80q-152 0 -250 82.5t-98 199.5zM254 272q0 -59 58.5 -103t146.5 -44q102 0 178 39q37 18 55.5 42.5t21.5 41t3 45.5v151q-190 -2 -326.5 -48t-136.5 -124zM344 1161.5 q0 61.5 58.5 104.5t142.5 43t142 -43t58 -104.5t-58 -104.5t-142 -43t-142.5 43t-58.5 104.5zM446 1161.5q0 -28.5 29 -49t70 -20.5t69.5 20.5t28.5 49t-28.5 49t-69.5 20.5t-70 -20.5t-29 -49z" />
<glyph unicode="&#xe6;" d="M61 252q0 106 100.5 180t317.5 82v61q0 94 -45 141.5t-110 47.5q-31 0 -43 -2q2 -4 2 -21q0 -45 -29 -72.5t-70 -27.5q-45 0 -72.5 28.5t-27.5 71.5q0 70 61.5 114t180.5 44q154 0 235 -137q98 137 221 137q115 0 188.5 -109.5t73.5 -316.5q0 -53 -18 -70.5t-70 -17.5 h-346q16 -125 78 -192.5t123 -67.5q76 0 107 100q12 59 63 60q27 0 45 -18.5t18 -45.5q0 -59 -64.5 -145t-174.5 -86q-133 0 -234 133q-47 -74 -122.5 -103.5t-141.5 -29.5q-111 0 -178.5 81t-67.5 181zM188 252q0 -47 35 -87t94 -40q66 0 117 41q43 33 43 104v41q0 49 2 70 q-147 -8 -219 -44t-72 -85zM610 518h305q-8 131 -47 188.5t-86 57.5q-57 0 -107.5 -70t-64.5 -176z" />
<glyph unicode="&#xe7;" d="M147 442q0 72 26 147t79 146.5t152.5 117.5t228.5 46q55 0 91 -3t94.5 -16.5t90 -48t31.5 -90.5q0 -43 -27.5 -71.5t-72.5 -28.5q-39 0 -68 25.5t-31 68.5q0 20 -8 23q-31 6 -104 6q-92 0 -160 -35t-101.5 -88t-49 -103.5t-15.5 -95.5q0 -133 92 -225t221 -92 q145 0 193 113q18 47 76 47q78 0 78 -64q0 -23 -18.5 -62.5t-79 -90t-150.5 -68.5v-6q111 -25 158 -81t47 -122q0 -74 -43 -120t-122 -64.5t-137.5 -23.5t-144.5 -5q-43 0 -62.5 2t-37 17.5t-17.5 48.5q0 68 88 67h45q274 0 275 78q0 31 -37 52.5t-96 23.5q-33 2 -50.5 18.5 t-19.5 30.5t-2 43v33q-176 16 -294 146t-118 304z" />
<glyph unicode="&#xe8;" d="M109 444q0 188 131 321.5t319 133.5q193 0 298.5 -122t105.5 -314q0 -37 -15.5 -55.5t-31 -20.5t-42.5 -2h-604q25 -117 120 -188.5t212 -71.5q158 0 207 113q14 31 29.5 39t46.5 8q78 0 78 -64q0 -23 -19.5 -58.5t-59.5 -75.5t-117 -68.5t-175 -28.5q-205 0 -344 134 t-139 320zM272 518h531q-29 246 -244 246q-102 0 -183 -70t-104 -176zM322 1194q0 31 22.5 54.5t54.5 23.5q10 0 45 -12l265 -103q57 -23 57 -63q0 -10 -4 -25.5t-22.5 -40t-47.5 -24.5q-12 0 -162 57l-147 55q-61 25 -61 78z" />
<glyph unicode="&#xe9;" d="M109 444q0 188 131 321.5t319 133.5q193 0 298.5 -122t105.5 -314q0 -37 -15.5 -55.5t-31 -20.5t-42.5 -2h-604q25 -117 120 -188.5t212 -71.5q158 0 207 113q14 31 29.5 39t46.5 8q78 0 78 -64q0 -23 -19.5 -58.5t-59.5 -75.5t-117 -68.5t-175 -28.5q-205 0 -344 134 t-139 320zM272 518h531q-29 246 -244 246q-102 0 -183 -70t-104 -176zM322 1094q0 41 57 63l264 103q35 12 45 12q33 0 55.5 -23.5t22.5 -54.5q0 -53 -61 -78l-148 -55q-150 -57 -162 -57q-61 4 -73 90z" />
<glyph unicode="&#xea;" d="M109 444q0 188 131 321.5t319 133.5q193 0 298.5 -122t105.5 -314q0 -37 -15.5 -55.5t-31 -20.5t-42.5 -2h-604q25 -117 120 -188.5t212 -71.5q158 0 207 113q14 31 29.5 39t46.5 8q78 0 78 -64q0 -23 -19.5 -58.5t-59.5 -75.5t-117 -68.5t-175 -28.5q-205 0 -344 134 t-139 320zM251 1029q-32 50 19 83l242 154q31 20 61 0l246 -156q51 -33 19.5 -82t-82.5 -18l-211 127l-211 -127q-51 -31 -83 19zM272 518h531q-29 246 -244 246q-102 0 -183 -70t-104 -176z" />
<glyph unicode="&#xeb;" d="M109 444q0 188 131 321.5t319 133.5q193 0 298.5 -122t105.5 -314q0 -37 -15.5 -55.5t-31 -20.5t-42.5 -2h-604q25 -117 120 -188.5t212 -71.5q158 0 207 113q14 31 29.5 39t46.5 8q78 0 78 -64q0 -23 -19.5 -58.5t-59.5 -75.5t-117 -68.5t-175 -28.5q-205 0 -344 134 t-139 320zM260 1137q0 41 29.5 70.5t70.5 29.5t71 -29.5t30 -70.5t-30 -70t-71 -29t-70.5 29t-29.5 70zM272 518h531q-29 246 -244 246q-102 0 -183 -70t-104 -176zM627 1137q0 41 29.5 70.5t70.5 29.5t70.5 -29.5t29.5 -70.5t-29.5 -70t-70.5 -29t-70.5 29t-29.5 70z" />
<glyph unicode="&#xec;" d="M162 67.5q0 67.5 90 67.5h240v613h-224q-90 0 -90 67.5t90 67.5h291q51 0 69.5 -18.5t18.5 -69.5v-660h207q90 0 90 -67.5t-90 -67.5h-602q-90 0 -90 67.5zM322 1194q0 31 22.5 54.5t54.5 23.5q10 0 45 -12l265 -103q57 -23 57 -63q0 -10 -4 -25.5t-22.5 -40t-47.5 -24.5 q-12 0 -162 57l-147 55q-61 25 -61 78z" />
<glyph unicode="&#xed;" d="M162 67.5q0 67.5 90 67.5h240v613h-224q-90 0 -90 67.5t90 67.5h291q51 0 69.5 -18.5t18.5 -69.5v-660h207q90 0 90 -67.5t-90 -67.5h-602q-90 0 -90 67.5zM322 1094q0 41 57 63l264 103q35 12 45 12q33 0 55.5 -23.5t22.5 -54.5q0 -53 -61 -78l-148 -55 q-150 -57 -162 -57q-61 4 -73 90z" />
<glyph unicode="&#xee;" d="M162 67.5q0 67.5 90 67.5h240v613h-224q-90 0 -90 67.5t90 67.5h291q51 0 69.5 -18.5t18.5 -69.5v-660h207q90 0 90 -67.5t-90 -67.5h-602q-90 0 -90 67.5zM251 1029q-32 50 19 83l242 154q31 20 61 0l246 -156q51 -33 19.5 -82t-82.5 -18l-211 127l-211 -127 q-51 -31 -83 19z" />
<glyph unicode="&#xef;" d="M162 67.5q0 67.5 90 67.5h240v613h-224q-90 0 -90 67.5t90 67.5h291q51 0 69.5 -18.5t18.5 -69.5v-660h207q90 0 90 -67.5t-90 -67.5h-602q-90 0 -90 67.5zM260 1137q0 41 29.5 70.5t70.5 29.5t71 -29.5t30 -70.5t-30 -70t-71 -29t-70.5 29t-29.5 70zM627 1137 q0 41 29.5 70.5t70.5 29.5t70.5 -29.5t29.5 -70.5t-29.5 -70t-70.5 -29t-70.5 29t-29.5 70z" />
<glyph unicode="&#xf0;" d="M113 440q0 190 126 323.5t304 133.5q59 0 135 -23q-43 55 -103 101q-43 31 -75 51l-187 -80q-16 -8 -37 -8q-29 0 -48 17.5t-19 43.5q0 49 51 70l64 29q-35 10 -70 12l-45 2q-80 0 -80 64q0 31 31 57q25 18 67 18q61 0 119 -12q90 -18 174 -55l162 69q14 8 37 9 q29 0 48 -17.5t19 -44.5q0 -47 -51 -70l-71 -32q68 -53 106 -97q203 -213 203 -524q0 -217 -115 -344q-131 -143 -315 -143q-178 0 -304 132t-126 318zM270 457q0 -137 81 -234.5t192 -97.5q115 0 193.5 99.5t78.5 224.5q0 123 -79 218t-193 95q-111 0 -192 -88t-81 -217z " />
<glyph unicode="&#xf1;" d="M23 67.5q0 67.5 88 67.5h84v613h-84q-88 0 -88 67.5t88 67.5h151q57 0 72.5 -20.5t15.5 -71.5q16 16 45 36.5t93.5 43t132.5 22.5q270 0 270 -297v-461h84q88 0 88 -67.5t-88 -67.5h-307q-88 0 -88 67.5t88 67.5h67v457q0 92 -27.5 129t-97.5 37q-94 0 -177 -68.5 t-83 -202.5v-352h84q88 0 88 -67.5t-88 -67.5h-323q-88 0 -88 67.5zM184 1079q0 41 105 119q90 68 162 68q70 0 145 -76q35 -35 49 -35q47 0 131 78q33 33 60 33q29 0 49 -21.5t20 -48.5q0 -41 -104 -119q-90 -68 -162 -67q-70 0 -145 75q-35 35 -50 35q-47 0 -131 -78 q-33 -33 -59 -32q-29 0 -49.5 21t-20.5 48z" />
<glyph unicode="&#xf2;" d="M113 442q0 188 126 322.5t304 134.5t304 -134t126 -323q0 -190 -127 -321t-303 -131t-303 131t-127 321zM268 457q0 -139 81 -235.5t193.5 -96.5t193.5 96t81 236q0 131 -82 219t-192.5 88t-192.5 -88t-82 -219zM322 1194q0 31 22.5 54.5t54.5 23.5q10 0 45 -12l265 -103 q57 -23 57 -63q0 -10 -4 -25.5t-22.5 -40t-47.5 -24.5q-12 0 -162 57l-147 55q-61 25 -61 78z" />
<glyph unicode="&#xf3;" d="M113 442q0 188 126 322.5t304 134.5t304 -134t126 -323q0 -190 -127 -321t-303 -131t-303 131t-127 321zM268 457q0 -139 81 -235.5t193.5 -96.5t193.5 96t81 236q0 131 -82 219t-192.5 88t-192.5 -88t-82 -219zM322 1094q0 41 57 63l264 103q35 12 45 12 q33 0 55.5 -23.5t22.5 -54.5q0 -53 -61 -78l-148 -55q-150 -57 -162 -57q-61 4 -73 90z" />
<glyph unicode="&#xf4;" d="M113 442q0 188 126 322.5t304 134.5t304 -134t126 -323q0 -190 -127 -321t-303 -131t-303 131t-127 321zM251 1029q-32 50 19 83l242 154q31 20 61 0l246 -156q51 -33 19.5 -82t-82.5 -18l-211 127l-211 -127q-51 -31 -83 19zM268 457q0 -139 81 -235.5t193.5 -96.5 t193.5 96t81 236q0 131 -82 219t-192.5 88t-192.5 -88t-82 -219z" />
<glyph unicode="&#xf5;" d="M113 442q0 188 126 322.5t304 134.5t304 -134t126 -323q0 -190 -127 -321t-303 -131t-303 131t-127 321zM184 1079q0 41 105 119q90 68 162 68q70 0 145 -76q35 -35 49 -35q47 0 131 78q33 33 60 33q29 0 49 -21.5t20 -48.5q0 -41 -104 -119q-90 -68 -162 -67 q-70 0 -145 75q-35 35 -50 35q-47 0 -131 -78q-33 -33 -59 -32q-29 0 -49.5 21t-20.5 48zM268 457q0 -139 81 -235.5t193.5 -96.5t193.5 96t81 236q0 131 -82 219t-192.5 88t-192.5 -88t-82 -219z" />
<glyph unicode="&#xf6;" d="M113 442q0 188 126 322.5t304 134.5t304 -134t126 -323q0 -190 -127 -321t-303 -131t-303 131t-127 321zM260 1137q0 41 29.5 70.5t70.5 29.5t71 -29.5t30 -70.5t-30 -70t-71 -29t-70.5 29t-29.5 70zM268 457q0 -139 81 -235.5t193.5 -96.5t193.5 96t81 236 q0 131 -82 219t-192.5 88t-192.5 -88t-82 -219zM627 1137q0 41 29.5 70.5t70.5 29.5t70.5 -29.5t29.5 -70.5t-29.5 -70t-70.5 -29t-70.5 29t-29.5 70z" />
<glyph unicode="&#xf7;" d="M78 627q0 80 110 80h709q111 0 111 -80q0 -78 -99 -78h-733q-98 0 -98 78zM403 156q0 55 40 96t100 41q55 0 96 -40t41 -99q0 -55 -40 -96.5t-99 -41.5q-55 0 -96.5 40.5t-41.5 99.5zM403 1102q0 55 40 96t100 41q55 0 96 -40t41 -99q0 -55 -40 -96t-99 -41 q-55 0 -96.5 40t-41.5 99z" />
<glyph unicode="&#xf8;" d="M84 -225q0 18 31 71l143 244q-76 57 -123 151.5t-47 200.5q0 188 132 322.5t323 134.5q88 0 170 -33l155 267q25 43 62 43q27 0 49 -18.5t22 -49.5q0 -23 -16 -47l-156 -264q168 -137 168 -355q0 -188 -133 -320t-321 -132q-86 0 -166 30l-76 -128l-53 -92 q-18 -32 -29 -46q-29 -47 -63 -47q-27 0 -49.5 19.5t-22.5 48.5zM215 442q0 -139 111 -237l317 545q-43 14 -100 14q-137 0 -232.5 -94.5t-95.5 -227.5zM444 139q47 -14 99 -14q135 0 231 92t96 225q0 145 -108 238z" />
<glyph unicode="&#xf9;" d="M23 815.5q0 67.5 88 67.5h151q51 0 69.5 -18.5t18.5 -69.5v-551q0 -31 3 -45.5t16.5 -35t47.5 -29.5t91 -9q82 0 154.5 43t72.5 149v431h-84q-88 0 -88 67.5t88 67.5h152q51 0 69.5 -18.5t18.5 -69.5v-660h84q88 0 88 -67.5t-88 -67.5h-152q-80 0 -90 59 q-92 -70 -237 -69q-301 0 -301 248v510h-84q-88 0 -88 67.5zM322 1194q0 31 22.5 54.5t54.5 23.5q10 0 45 -12l265 -103q57 -23 57 -63q0 -10 -4 -25.5t-22.5 -40t-47.5 -24.5q-12 0 -162 57l-147 55q-61 25 -61 78z" />
<glyph unicode="&#xfa;" d="M23 815.5q0 67.5 88 67.5h151q51 0 69.5 -18.5t18.5 -69.5v-551q0 -31 3 -45.5t16.5 -35t47.5 -29.5t91 -9q82 0 154.5 43t72.5 149v431h-84q-88 0 -88 67.5t88 67.5h152q51 0 69.5 -18.5t18.5 -69.5v-660h84q88 0 88 -67.5t-88 -67.5h-152q-80 0 -90 59 q-92 -70 -237 -69q-301 0 -301 248v510h-84q-88 0 -88 67.5zM322 1094q0 41 57 63l264 103q35 12 45 12q33 0 55.5 -23.5t22.5 -54.5q0 -53 -61 -78l-148 -55q-150 -57 -162 -57q-61 4 -73 90z" />
<glyph unicode="&#xfb;" d="M23 815.5q0 67.5 88 67.5h151q51 0 69.5 -18.5t18.5 -69.5v-551q0 -31 3 -45.5t16.5 -35t47.5 -29.5t91 -9q82 0 154.5 43t72.5 149v431h-84q-88 0 -88 67.5t88 67.5h152q51 0 69.5 -18.5t18.5 -69.5v-660h84q88 0 88 -67.5t-88 -67.5h-152q-80 0 -90 59 q-92 -70 -237 -69q-301 0 -301 248v510h-84q-88 0 -88 67.5zM251 1029q-32 50 19 83l242 154q31 20 61 0l246 -156q51 -33 19.5 -82t-82.5 -18l-211 127l-211 -127q-51 -31 -83 19z" />
<glyph unicode="&#xfc;" d="M23 815.5q0 67.5 88 67.5h151q51 0 69.5 -18.5t18.5 -69.5v-551q0 -31 3 -45.5t16.5 -35t47.5 -29.5t91 -9q82 0 154.5 43t72.5 149v431h-84q-88 0 -88 67.5t88 67.5h152q51 0 69.5 -18.5t18.5 -69.5v-660h84q88 0 88 -67.5t-88 -67.5h-152q-80 0 -90 59 q-92 -70 -237 -69q-301 0 -301 248v510h-84q-88 0 -88 67.5zM260 1137q0 41 29.5 70.5t70.5 29.5t71 -29.5t30 -70.5t-30 -70t-71 -29t-70.5 29t-29.5 70zM627 1137q0 41 29.5 70.5t70.5 29.5t70.5 -29.5t29.5 -70.5t-29.5 -70t-70.5 -29t-70.5 29t-29.5 70z" />
<glyph unicode="&#xfd;" d="M55 815q0 68 95 68h227q94 0 94 -68q0 -49 -39 -61q-14 -6 -92 -6l119 -302q94 -248 102 -286h2q10 39 88 280l105 308q-86 0 -101 6q-37 16 -37 61q0 68 95 68h227q94 0 94 -68q0 -47 -43 -63q-12 -4 -102 -4l-314 -918q-41 -121 -122.5 -208t-192.5 -87 q-76 0 -124 53.5t-48 118.5q0 45 26.5 71.5t69.5 26.5q39 0 67 -24.5t30 -71.5l-19 -39q106 8 164 123q12 25 42 113t30 94q-2 10 -9 27l-286 721q-92 0 -105 4q-43 14 -43 63zM322 1094q0 41 57 63l264 103q35 12 45 12q33 0 55.5 -23.5t22.5 -54.5q0 -53 -61 -78l-148 -55 q-150 -57 -162 -57q-61 4 -73 90z" />
<glyph unicode="&#xfe;" d="M23 -387q0 68 88 68h84v1435h-84q-88 0 -88 67.5t88 67.5h151q51 0 69.5 -18.5t18.5 -69.5v-362q119 92 254 92q172 0 292 -132t120 -319q0 -190 -129 -321t-303 -131q-133 0 -234 96v-405h84q88 0 88 -68t-88 -68h-323q-88 0 -88 68zM350 397q0 -92 61.5 -182t166.5 -90 q111 0 196.5 91t85.5 226q0 131 -77.5 223.5t-186.5 92.5q-94 0 -170 -65.5t-76 -153.5v-142z" />
<glyph unicode="&#xff;" d="M55 815q0 68 95 68h227q94 0 94 -68q0 -49 -39 -61q-14 -6 -92 -6l119 -302q94 -248 102 -286h2q10 39 88 280l105 308q-86 0 -101 6q-37 16 -37 61q0 68 95 68h227q94 0 94 -68q0 -47 -43 -63q-12 -4 -102 -4l-314 -918q-41 -121 -122.5 -208t-192.5 -87 q-76 0 -124 53.5t-48 118.5q0 45 26.5 71.5t69.5 26.5q39 0 67 -24.5t30 -71.5l-19 -39q106 8 164 123q12 25 42 113t30 94q-2 10 -9 27l-286 721q-92 0 -105 4q-43 14 -43 63zM260 1137q0 41 29.5 70.5t70.5 29.5t71 -29.5t30 -70.5t-30 -70t-71 -29t-70.5 29t-29.5 70z M627 1137q0 41 29.5 70.5t70.5 29.5t70.5 -29.5t29.5 -70.5t-29.5 -70t-70.5 -29t-70.5 29t-29.5 70z" />
<glyph unicode="&#x152;" d="M61 627q0 332 27 454q23 104 85.5 147.5t225.5 43.5q55 0 114.5 -10.5t104.5 -10.5h318q51 0 69.5 -18.5t18.5 -69.5v-151q0 -88 -63.5 -88t-63.5 88v104h-227v-401h237q88 0 88 -67.5t-88 -67.5h-237v-445h243v135q0 88 63.5 88t63.5 -88v-182q0 -53 -18 -70.5 t-70 -17.5h-334q-45 0 -92 -8q-72 -12 -127 -12q-164 0 -225 44t-84 144q-29 123 -29 459zM188 643q0 -127 1 -182t7.5 -132t19.5 -104.5t39 -60.5t63.5 -41t95.5 -8q76 0 102.5 48t26.5 193v539q0 147 -27 194.5t-104 47.5q-158 0 -191 -88.5t-33 -405.5z" />
<glyph unicode="&#x153;" d="M39 444.5q0 194.5 88 324.5t215 130q143 0 238 -166q86 166 221 166q111 0 178.5 -111.5t67.5 -312.5q0 -53 -17.5 -71.5t-71.5 -18.5h-309q14 -129 70.5 -194.5t107.5 -65.5q66 0 93 100q14 59 63 60q27 0 45.5 -18.5t18.5 -45.5q0 -57 -58.5 -144t-167.5 -87 q-147 0 -239 172q-35 -66 -96.5 -119t-143.5 -53q-125 0 -214 130t-89 324.5zM166 457q0 -139 55 -235.5t121 -96.5t121 96t55 236q0 135 -55 221t-121 86t-121 -86t-55 -221zM649 518h269q-4 106 -36 176t-81 70q-47 0 -92.5 -71t-59.5 -175z" />
<glyph unicode="&#x178;" d="M41 1183.5q0 67.5 90 67.5h213q88 0 88 -67q0 -31 -16.5 -47.5t-31.5 -18.5t-42 -2l55 -115q129 -281 144 -339h2q14 59 149 346l51 108q-27 0 -42 2t-31.5 18.5t-16.5 47.5q0 68 88 67h213q90 0 90 -67.5t-90 -67.5h-36l-297 -616v-365h43q90 0 90 -67.5t-90 -67.5h-242 q-90 0 -90 67.5t90 67.5h43v365l-297 616h-37q-90 0 -90 67.5zM225 1462q0 41 30 71t71 30t70.5 -30t29.5 -71t-29.5 -69.5t-70.5 -28.5t-71 28.5t-30 69.5zM662 1462q0 41 29.5 71t70.5 30t70.5 -30t29.5 -71t-29.5 -69.5t-70.5 -28.5t-70.5 28.5t-29.5 69.5z" />
<glyph unicode="&#x2c6;" d="M251 1029q-32 50 19 83l242 154q31 20 61 0l246 -156q51 -33 19.5 -82t-82.5 -18l-211 127l-211 -127q-51 -31 -83 19z" />
<glyph unicode="&#x2dc;" d="M184 1079q0 41 105 119q90 68 162 68q70 0 145 -76q35 -35 49 -35q47 0 131 78q33 33 60 33q29 0 49 -21.5t20 -48.5q0 -41 -104 -119q-90 -68 -162 -67q-70 0 -145 75q-35 35 -50 35q-47 0 -131 -78q-33 -33 -59 -32q-29 0 -49.5 21t-20.5 48z" />
<glyph unicode="&#x2000;" horiz-adv-x="825" />
<glyph unicode="&#x2001;" horiz-adv-x="1652" />
<glyph unicode="&#x2002;" horiz-adv-x="825" />
<glyph unicode="&#x2003;" horiz-adv-x="1652" />
<glyph unicode="&#x2004;" horiz-adv-x="550" />
<glyph unicode="&#x2005;" horiz-adv-x="411" />
<glyph unicode="&#x2006;" horiz-adv-x="274" />
<glyph unicode="&#x2007;" horiz-adv-x="274" />
<glyph unicode="&#x2008;" horiz-adv-x="204" />
<glyph unicode="&#x2009;" horiz-adv-x="329" />
<glyph unicode="&#x200a;" horiz-adv-x="90" />
<glyph unicode="&#x2010;" d="M117 627q0 78 102 78h647q102 0 103 -80q0 -78 -103 -78h-647q-102 0 -102 80z" />
<glyph unicode="&#x2011;" d="M117 627q0 78 102 78h647q102 0 103 -80q0 -78 -103 -78h-647q-102 0 -102 80z" />
<glyph unicode="&#x2012;" d="M117 627q0 78 102 78h647q102 0 103 -80q0 -78 -103 -78h-647q-102 0 -102 80z" />
<glyph unicode="&#x2013;" d="M117 627q0 78 102 78h647q102 0 103 -80q0 -78 -103 -78h-647q-102 0 -102 80z" />
<glyph unicode="&#x2014;" d="M117 627q0 78 102 78h647q102 0 103 -80q0 -78 -103 -78h-647q-102 0 -102 80z" />
<glyph unicode="&#x2018;" d="M371 985q0 174 107.5 292t170.5 118q27 0 47.5 -21.5t20.5 -48.5q0 -39 -45 -61q-166 -94 -166 -303q18 6 37 6q49 0 79.5 -33t30.5 -78q0 -43 -29.5 -77t-82.5 -34q-74 0 -122 65.5t-48 174.5z" />
<glyph unicode="&#x2019;" d="M369 672q0 39 45 61q166 94 166 303q-18 -6 -37 -6q-49 0 -80 33t-31 78q0 43 30 76.5t83 33.5q74 0 122 -65.5t48 -173.5q0 -174 -107.5 -292t-171.5 -118q-27 0 -47 21.5t-20 48.5z" />
<glyph unicode="&#x201a;" d="M444 111q0 49 31 74.5t68 25.5q39 0 69.5 -26.5t30.5 -75.5l-31 -424q-6 -80 -69 -80q-29 0 -44.5 15t-18.5 30.5t-5 42.5z" />
<glyph unicode="&#x201c;" d="M260 1176q0 49 31 74.5t67 25.5q39 0 70 -26.5t31 -75.5l-31 -424q-6 -80 -70 -80q-29 0 -44 15t-18 30.5t-5 42.5zM627 1174q0 49 30.5 75.5t69.5 26.5q37 0 67.5 -25.5t30.5 -74.5l-30 -420q-2 -27 -5.5 -41.5t-18.5 -29.5t-44 -15t-45 15t-19.5 28.5t-5.5 44.5z" />
<glyph unicode="&#x201d;" d="M260 1176q0 49 31 74.5t67 25.5q39 0 70 -26.5t31 -75.5l-31 -424q-6 -80 -70 -80q-29 0 -44 15t-18 30.5t-5 42.5zM627 1174q0 49 30.5 75.5t69.5 26.5q37 0 67.5 -25.5t30.5 -74.5l-30 -420q-2 -27 -5.5 -41.5t-18.5 -29.5t-44 -15t-45 15t-19.5 28.5t-5.5 44.5z" />
<glyph unicode="&#x201e;" d="M260 111q0 49 31 74.5t67 25.5q39 0 70 -26.5t31 -75.5l-31 -424q-6 -80 -70 -80q-29 0 -44 15t-18 30.5t-5 42.5zM627 109q0 49 30.5 75.5t69.5 26.5q37 0 67.5 -25.5t30.5 -74.5l-30 -420q-2 -27 -5.5 -41.5t-18.5 -29.5t-44 -15t-45 15t-19.5 28.5t-5.5 44.5z" />
<glyph unicode="&#x2022;" d="M244 463q0 121 86 210t217 89q121 0 210 -86t89 -217q0 -121 -86 -210t-217 -89q-121 0 -210 86t-89 217z" />
<glyph unicode="&#x2026;" d="M43 139q0 55 40 96t99 41q55 0 96 -39.5t41 -99.5q0 -55 -39.5 -96t-99.5 -41q-55 0 -96 40t-41 99zM406 139q0 55 39.5 96t99.5 41q55 0 96 -39.5t41 -99.5q0 -55 -40 -96t-99 -41q-55 0 -96 40t-41 99zM768 139q0 55 40 96t99 41q55 0 96 -39.5t41 -99.5 q0 -55 -39.5 -96t-99.5 -41q-55 0 -96 40t-41 99z" />
<glyph unicode="&#x202f;" horiz-adv-x="329" />
<glyph unicode="&#x2039;" d="M268 627q0 33 29 61l440 381q23 18 37 18q18 0 31.5 -17t13.5 -48q0 -35 -31 -61l-385 -334l385 -334q31 -27 31 -62q0 -31 -13 -48t-32 -17q-14 0 -37 18l-446 385q-23 23 -23 58z" />
<glyph unicode="&#x203a;" d="M268 231q0 35 31 62l385 334l-385 334q-31 27 -31 61q0 31 13.5 48t31.5 17q14 0 37 -18l441 -381q29 -29 28 -61q0 -35 -22 -58l-447 -385q-23 -18 -37 -18q-18 0 -31.5 17t-13.5 48z" />
<glyph unicode="&#x205f;" horiz-adv-x="411" />
<glyph unicode="&#x20ac;" d="M131 481l8 33q6 41 49 41h56q-2 23 -2 72q0 47 2 71h-64q-25 0 -40 19.5t-9 42.5l8 33q6 41 49 41h74q25 127 90 237q123 201 301 201q98 0 172 -43l23 22q20 20 47 21h8q27 0 45.5 -18.5t18.5 -45.5v-184q0 -27 -18.5 -45t-45.5 -18h-29q-25 0 -42 16t-21 39 q-6 53 -49 87t-98 34q-98 0 -179 -136q-41 -72 -65 -167h348q23 0 39 -15.5t12 -36.5l-10 -45q-6 -39 -49 -39h-361q-2 -25 -2 -71q0 -49 2 -72h301q23 0 39.5 -15.5t12.5 -35.5l-11 -45q-6 -39 -49 -39h-272q25 -98 65 -168q78 -137 179 -137q55 0 98 33.5t49 87.5 q4 23 21.5 39t41.5 16h29q27 0 45.5 -18.5t18.5 -45.5v-184q0 -27 -18.5 -45t-45.5 -18h-8q-27 0 -47 20l-23 23q-74 -43 -172 -43q-178 0 -301 200q-66 113 -90 240h-82q-25 0 -40 19t-9 42z" />
<glyph unicode="&#x2122;" horiz-adv-x="2174" d="M1120 68q0 31 18.5 47t36.5 18t53 2v981q-35 0 -53 2t-36.5 18.5t-18.5 47.5q0 68 90 67h119q57 0 79.5 -18.5t36.5 -65.5l136 -413q35 -106 47 -174h2q12 63 67 231l117 363q12 37 33.5 55t38 20t45.5 2h119q90 0 90 -67q0 -31 -18.5 -47.5t-37 -18.5t-53.5 -2v-981 q35 0 53.5 -2t37 -18.5t18.5 -46.5q0 -68 -90 -68h-164q-90 0 -90 68q0 31 18 47t36.5 18t53.5 2v946q-2 -14 -94 -304t-102 -310q-27 -49 -78 -49q-59 0 -90 80l-146 452q-25 74 -37 135h-2v-950q35 0 53.5 -2t37 -18.5t18.5 -46.5q0 -68 -90 -68h-164q-90 0 -90 68z M55 1012v151q0 53 19.5 70.5t70.5 17.5h797q51 0 69.5 -18.5t18.5 -69.5v-151q0 -27 -2 -42.5t-20.5 -30.5t-55.5 -15t-55 15t-20.5 30.5t-2.5 42.5v104h-253v-981h98q90 0 90 -67.5t-90 -67.5h-352q-90 0 -90.5 67.5t90.5 67.5h98v981h-254v-104q0 -27 -2 -42.5 t-20.5 -30.5t-55.5 -15t-55.5 15t-20.5 30.5t-2 42.5z" />
<glyph unicode="&#xe000;" horiz-adv-x="885" d="M0 885h885v-885h-885v885z" />
<glyph unicode="&#xfb01;" horiz-adv-x="2174" d="M1249 67.5q0 67.5 90 67.5h240v613h-224q-90 0 -90 67.5t90 67.5h291q51 0 69.5 -18.5t18.5 -69.5v-660h207q90 0 90 -67.5t-90 -67.5h-602q-90 0 -90 67.5zM1521 1139q0 45 33 77.5t78 32.5t77.5 -32.5t32.5 -77.5t-32.5 -78t-77.5 -33t-78 33t-33 78zM86 67.5 q0 67.5 90 67.5h199v613h-199q-88 0 -88 67.5t90 67.5h197v100q0 135 98 207t229 72q205 0 205 -132q0 -45 -29.5 -71.5t-66.5 -26.5q-33 0 -62.5 24.5t-33.5 69.5q-184 0 -185 -149v-94h244q88 0 88 -67.5t-88 -67.5h-244v-613h199q90 0 90 -67.5t-90 -67.5h-553 q-90 0 -90 67.5z" />
<glyph unicode="&#xfb02;" horiz-adv-x="2174" d="M1206 67.5q0 67.5 90 67.5h256v981h-256q-90 0 -90 67.5t90 67.5h323q51 0 70 -18.5t19 -69.5v-1028h256q90 0 90 -67.5t-90 -67.5h-668q-90 0 -90 67.5zM86 67.5q0 67.5 90 67.5h199v613h-199q-88 0 -88 67.5t90 67.5h197v100q0 135 98 207t229 72q205 0 205 -132 q0 -45 -29.5 -71.5t-66.5 -26.5q-33 0 -62.5 24.5t-33.5 69.5q-184 0 -185 -149v-94h244q88 0 88 -67.5t-88 -67.5h-244v-613h199q90 0 90 -67.5t-90 -67.5h-553q-90 0 -90 67.5z" />
<glyph unicode="&#xfb03;" horiz-adv-x="3262" d="M2337 67.5q0 67.5 90 67.5h240v613h-224q-90 0 -90 67.5t90 67.5h291q51 0 69.5 -18.5t18.5 -69.5v-660h207q90 0 90 -67.5t-90 -67.5h-602q-90 0 -90 67.5zM2609 1139q0 45 33 77.5t78 32.5t77.5 -32.5t32.5 -77.5t-32.5 -78t-77.5 -33t-78 33t-33 78zM1173 67.5 q0 67.5 90 67.5h199v613h-199q-88 0 -88 67.5t90 67.5h197v100q0 135 98 207t229 72q205 0 205 -132q0 -45 -29.5 -71.5t-66.5 -26.5q-33 0 -62.5 24.5t-33.5 69.5q-184 0 -185 -149v-94h244q88 0 88 -67.5t-88 -67.5h-244v-613h199q90 0 90 -67.5t-90 -67.5h-553 q-90 0 -90 67.5zM86 67.5q0 67.5 90 67.5h199v613h-199q-88 0 -88 67.5t90 67.5h197v100q0 135 98 207t229 72q205 0 205 -132q0 -45 -29.5 -71.5t-66.5 -26.5q-33 0 -62.5 24.5t-33.5 69.5q-184 0 -185 -149v-94h244q88 0 88 -67.5t-88 -67.5h-244v-613h199q90 0 90 -67.5 t-90 -67.5h-553q-90 0 -90 67.5z" />
<glyph unicode="&#xfb04;" horiz-adv-x="3262" d="M2294 67.5q0 67.5 90 67.5h256v981h-256q-90 0 -90 67.5t90 67.5h323q51 0 70 -18.5t19 -69.5v-1028h256q90 0 90 -67.5t-90 -67.5h-668q-90 0 -90 67.5zM1173 67.5q0 67.5 90 67.5h199v613h-199q-88 0 -88 67.5t90 67.5h197v100q0 135 98 207t229 72q205 0 205 -132 q0 -45 -29.5 -71.5t-66.5 -26.5q-33 0 -62.5 24.5t-33.5 69.5q-184 0 -185 -149v-94h244q88 0 88 -67.5t-88 -67.5h-244v-613h199q90 0 90 -67.5t-90 -67.5h-553q-90 0 -90 67.5zM86 67.5q0 67.5 90 67.5h199v613h-199q-88 0 -88 67.5t90 67.5h197v100q0 135 98 207t229 72 q205 0 205 -132q0 -45 -29.5 -71.5t-66.5 -26.5q-33 0 -62.5 24.5t-33.5 69.5q-184 0 -185 -149v-94h244q88 0 88 -67.5t-88 -67.5h-244v-613h199q90 0 90 -67.5t-90 -67.5h-553q-90 0 -90 67.5z" />
</font>
</defs>
</svg>
